<svg width="224" height="319" viewBox="0 0 224 319" fill="none" xmlns="http://www.w3.org/2000/svg">
<rect y="0.0909119" width="357.303" height="318.818" rx="19.6183" fill="white"/>
<path d="M22.4398 42.1818V28.8818H27.4558C28.8365 28.8818 29.8815 29.2048 30.5908 29.8508C31.3002 30.4968 31.6548 31.3075 31.6548 32.2828C31.6548 33.1315 31.4268 33.8092 30.9708 34.3158C30.5148 34.8098 29.9638 35.1455 29.3178 35.3228C29.8245 35.4242 30.2742 35.6268 30.6668 35.9308C31.0722 36.2348 31.3888 36.6148 31.6168 37.0708C31.8448 37.5268 31.9588 38.0208 31.9588 38.5528C31.9588 39.2368 31.7878 39.8575 31.4458 40.4148C31.1165 40.9595 30.6288 41.3902 29.9828 41.7068C29.3368 42.0235 28.5452 42.1818 27.6078 42.1818H22.4398ZM24.4538 34.5818H27.2088C27.9815 34.5818 28.5705 34.4045 28.9758 34.0498C29.3812 33.6825 29.5838 33.1822 29.5838 32.5488C29.5838 31.9282 29.3812 31.4342 28.9758 31.0668C28.5832 30.6995 27.9815 30.5158 27.1708 30.5158H24.4538V34.5818ZM24.4538 40.5288H27.3418C28.1525 40.5288 28.7795 40.3388 29.2228 39.9588C29.6788 39.5788 29.9068 39.0468 29.9068 38.3628C29.9068 37.6788 29.6725 37.1405 29.2038 36.7478C28.7352 36.3425 28.1018 36.1398 27.3038 36.1398H24.4538V40.5288ZM37.5484 42.4098C36.6237 42.4098 35.8004 42.2072 35.0784 41.8018C34.369 41.3838 33.8117 40.8075 33.4064 40.0728C33.001 39.3382 32.7984 38.4832 32.7984 37.5078C32.7984 36.5198 32.9947 35.6522 33.3874 34.9048C33.7927 34.1575 34.35 33.5748 35.0594 33.1568C35.7814 32.7388 36.6174 32.5298 37.5674 32.5298C38.4921 32.5298 39.2964 32.7388 39.9804 33.1568C40.6644 33.5622 41.1964 34.1068 41.5764 34.7908C41.9564 35.4748 42.1464 36.2285 42.1464 37.0518C42.1464 37.1785 42.14 37.3178 42.1274 37.4698C42.1274 37.6092 42.1211 37.7675 42.1084 37.9448H34.7744C34.8377 38.8568 35.1354 39.5535 35.6674 40.0348C36.212 40.5035 36.8391 40.7378 37.5484 40.7378C38.1184 40.7378 38.5934 40.6112 38.9734 40.3578C39.3661 40.0918 39.6574 39.7372 39.8474 39.2938H41.8614C41.6081 40.1805 41.1014 40.9215 40.3414 41.5168C39.5941 42.1122 38.6631 42.4098 37.5484 42.4098ZM37.5484 34.1828C36.877 34.1828 36.2817 34.3855 35.7624 34.7908C35.243 35.1835 34.9264 35.7788 34.8124 36.5768H40.1324C40.0944 35.8422 39.8347 35.2595 39.3534 34.8288C38.872 34.3982 38.2704 34.1828 37.5484 34.1828ZM47.0481 42.4098C45.8574 42.4098 44.8758 42.1185 44.1031 41.5358C43.3304 40.9532 42.8871 40.1805 42.7731 39.2178H44.8061C44.9074 39.6485 45.1481 40.0222 45.5281 40.3388C45.9081 40.6428 46.4084 40.7948 47.0291 40.7948C47.6371 40.7948 48.0804 40.6682 48.3591 40.4148C48.6378 40.1615 48.7771 39.8702 48.7771 39.5408C48.7771 39.0595 48.5808 38.7365 48.1881 38.5718C47.8081 38.3945 47.2761 38.2362 46.5921 38.0968C46.0601 37.9828 45.5281 37.8308 44.9961 37.6408C44.4768 37.4508 44.0398 37.1848 43.6851 36.8428C43.3431 36.4882 43.1721 36.0132 43.1721 35.4178C43.1721 34.5945 43.4888 33.9105 44.1221 33.3658C44.7554 32.8085 45.6421 32.5298 46.7821 32.5298C47.8334 32.5298 48.6821 32.7832 49.3281 33.2898C49.9868 33.7965 50.3731 34.5122 50.4871 35.4368H48.5491C48.4858 35.0315 48.2958 34.7148 47.9791 34.4868C47.6751 34.2588 47.2634 34.1448 46.7441 34.1448C46.2374 34.1448 45.8448 34.2525 45.5661 34.4678C45.2874 34.6705 45.1481 34.9365 45.1481 35.2658C45.1481 35.5952 45.3381 35.8548 45.7181 36.0448C46.1108 36.2348 46.6238 36.4058 47.2571 36.5578C47.8904 36.6972 48.4731 36.8618 49.0051 37.0518C49.5498 37.2292 49.9868 37.4952 50.3161 37.8498C50.6454 38.2045 50.8101 38.7238 50.8101 39.4078C50.8228 40.2692 50.4871 40.9848 49.8031 41.5548C49.1318 42.1248 48.2134 42.4098 47.0481 42.4098ZM55.6582 42.1818C54.7335 42.1818 53.9989 41.9602 53.4542 41.5168C52.9095 41.0608 52.6372 40.2565 52.6372 39.1038V34.4488H51.0222V32.7578H52.6372L52.8842 30.3638H54.6512V32.7578H57.3112V34.4488H54.6512V39.1038C54.6512 39.6232 54.7589 39.9842 54.9742 40.1868C55.2022 40.3768 55.5885 40.4718 56.1332 40.4718H57.2162V42.1818H55.6582ZM65.467 42.1818V30.5158H61.534V28.8818H71.395V30.5158H67.481V42.1818H65.467ZM73.3937 30.9718C73.0137 30.9718 72.697 30.8578 72.4437 30.6298C72.203 30.3892 72.0827 30.0915 72.0827 29.7368C72.0827 29.3822 72.203 29.0908 72.4437 28.8628C72.697 28.6222 73.0137 28.5018 73.3937 28.5018C73.7737 28.5018 74.084 28.6222 74.3247 28.8628C74.578 29.0908 74.7047 29.3822 74.7047 29.7368C74.7047 30.0915 74.578 30.3892 74.3247 30.6298C74.084 30.8578 73.7737 30.9718 73.3937 30.9718ZM72.3867 42.1818V32.7578H74.4007V42.1818H72.3867ZM76.1093 42.1818V32.7578H77.8953L78.0663 34.0878C78.3703 33.6065 78.7693 33.2265 79.2633 32.9478C79.77 32.6692 80.3527 32.5298 81.0113 32.5298C82.506 32.5298 83.5447 33.1188 84.1273 34.2968C84.4693 33.7522 84.9253 33.3215 85.4953 33.0048C86.078 32.6882 86.705 32.5298 87.3763 32.5298C88.5543 32.5298 89.479 32.8845 90.1503 33.5938C90.8217 34.3032 91.1573 35.3608 91.1573 36.7668V42.1818H89.1433V36.9758C89.1433 35.1518 88.4467 34.2398 87.0533 34.2398C86.344 34.2398 85.7613 34.5058 85.3053 35.0378C84.862 35.5698 84.6403 36.3298 84.6403 37.3178V42.1818H82.6263V36.9758C82.6263 35.1518 81.9233 34.2398 80.5173 34.2398C79.8207 34.2398 79.2443 34.5058 78.7883 35.0378C78.345 35.5698 78.1233 36.3298 78.1233 37.3178V42.1818H76.1093ZM96.9716 42.4098C96.047 42.4098 95.2236 42.2072 94.5016 41.8018C93.7923 41.3838 93.235 40.8075 92.8296 40.0728C92.4243 39.3382 92.2216 38.4832 92.2216 37.5078C92.2216 36.5198 92.418 35.6522 92.8106 34.9048C93.216 34.1575 93.7733 33.5748 94.4826 33.1568C95.2046 32.7388 96.0406 32.5298 96.9906 32.5298C97.9153 32.5298 98.7196 32.7388 99.4036 33.1568C100.088 33.5622 100.62 34.1068 101 34.7908C101.38 35.4748 101.57 36.2285 101.57 37.0518C101.57 37.1785 101.563 37.3178 101.551 37.4698C101.551 37.6092 101.544 37.7675 101.532 37.9448H94.1976C94.261 38.8568 94.5586 39.5535 95.0906 40.0348C95.6353 40.5035 96.2623 40.7378 96.9716 40.7378C97.5416 40.7378 98.0166 40.6112 98.3966 40.3578C98.7893 40.0918 99.0806 39.7372 99.2706 39.2938H101.285C101.031 40.1805 100.525 40.9215 99.7646 41.5168C99.0173 42.1122 98.0863 42.4098 96.9716 42.4098ZM96.9716 34.1828C96.3003 34.1828 95.705 34.3855 95.1856 34.7908C94.6663 35.1835 94.3496 35.7788 94.2356 36.5768H99.5556C99.5176 35.8422 99.258 35.2595 98.7766 34.8288C98.2953 34.3982 97.6936 34.1828 96.9716 34.1828ZM110.498 42.1818C109.574 42.1818 108.839 41.9602 108.294 41.5168C107.75 41.0608 107.477 40.2565 107.477 39.1038V34.4488H105.862V32.7578H107.477L107.724 30.3638H109.491V32.7578H112.151V34.4488H109.491V39.1038C109.491 39.6232 109.599 39.9842 109.814 40.1868C110.042 40.3768 110.429 40.4718 110.973 40.4718H112.056V42.1818H110.498ZM117.445 42.4098C116.546 42.4098 115.735 42.2072 115.013 41.8018C114.304 41.3838 113.74 40.8075 113.322 40.0728C112.904 39.3255 112.695 38.4578 112.695 37.4698C112.695 36.4818 112.904 35.6205 113.322 34.8858C113.753 34.1385 114.329 33.5622 115.051 33.1568C115.773 32.7388 116.577 32.5298 117.464 32.5298C118.363 32.5298 119.168 32.7388 119.877 33.1568C120.599 33.5622 121.169 34.1385 121.587 34.8858C122.018 35.6205 122.233 36.4818 122.233 37.4698C122.233 38.4578 122.018 39.3255 121.587 40.0728C121.169 40.8075 120.599 41.3838 119.877 41.8018C119.155 42.2072 118.344 42.4098 117.445 42.4098ZM117.445 40.6808C117.926 40.6808 118.37 40.5605 118.775 40.3198C119.193 40.0792 119.529 39.7245 119.782 39.2558C120.035 38.7745 120.162 38.1792 120.162 37.4698C120.162 36.7605 120.035 36.1715 119.782 35.7028C119.541 35.2215 119.212 34.8605 118.794 34.6198C118.389 34.3792 117.945 34.2588 117.464 34.2588C116.983 34.2588 116.533 34.3792 116.115 34.6198C115.71 34.8605 115.38 35.2215 115.127 35.7028C114.874 36.1715 114.747 36.7605 114.747 37.4698C114.747 38.1792 114.874 38.7745 115.127 39.2558C115.38 39.7245 115.71 40.0792 116.115 40.3198C116.52 40.5605 116.964 40.6808 117.445 40.6808ZM127.374 42.1818V28.8818H132.029C133.068 28.8818 133.929 29.0592 134.613 29.4138C135.297 29.7558 135.804 30.2308 136.133 30.8388C136.475 31.4342 136.646 32.1118 136.646 32.8718C136.646 33.5938 136.481 34.2588 136.152 34.8668C135.835 35.4622 135.335 35.9372 134.651 36.2918C133.967 36.6465 133.093 36.8238 132.029 36.8238H129.388V42.1818H127.374ZM129.388 35.1708H131.934C132.884 35.1708 133.562 34.9682 133.967 34.5628C134.385 34.1448 134.594 33.5812 134.594 32.8718C134.594 32.1372 134.385 31.5672 133.967 31.1618C133.562 30.7438 132.884 30.5348 131.934 30.5348H129.388V35.1708ZM141.499 42.4098C140.6 42.4098 139.789 42.2072 139.067 41.8018C138.358 41.3838 137.794 40.8075 137.376 40.0728C136.958 39.3255 136.749 38.4578 136.749 37.4698C136.749 36.4818 136.958 35.6205 137.376 34.8858C137.807 34.1385 138.383 33.5622 139.105 33.1568C139.827 32.7388 140.631 32.5298 141.518 32.5298C142.417 32.5298 143.222 32.7388 143.931 33.1568C144.653 33.5622 145.223 34.1385 145.641 34.8858C146.072 35.6205 146.287 36.4818 146.287 37.4698C146.287 38.4578 146.072 39.3255 145.641 40.0728C145.223 40.8075 144.653 41.3838 143.931 41.8018C143.209 42.2072 142.398 42.4098 141.499 42.4098ZM141.499 40.6808C141.98 40.6808 142.424 40.5605 142.829 40.3198C143.247 40.0792 143.583 39.7245 143.836 39.2558C144.089 38.7745 144.216 38.1792 144.216 37.4698C144.216 36.7605 144.089 36.1715 143.836 35.7028C143.595 35.2215 143.266 34.8605 142.848 34.6198C142.443 34.3792 141.999 34.2588 141.518 34.2588C141.037 34.2588 140.587 34.3792 140.169 34.6198C139.764 34.8605 139.434 35.2215 139.181 35.7028C138.928 36.1715 138.801 36.7605 138.801 37.4698C138.801 38.1792 138.928 38.7745 139.181 39.2558C139.434 39.7245 139.764 40.0792 140.169 40.3198C140.574 40.5605 141.018 40.6808 141.499 40.6808ZM151.277 42.4098C150.087 42.4098 149.105 42.1185 148.332 41.5358C147.56 40.9532 147.116 40.1805 147.002 39.2178H149.035C149.137 39.6485 149.377 40.0222 149.757 40.3388C150.137 40.6428 150.638 40.7948 151.258 40.7948C151.866 40.7948 152.31 40.6682 152.588 40.4148C152.867 40.1615 153.006 39.8702 153.006 39.5408C153.006 39.0595 152.81 38.7365 152.417 38.5718C152.037 38.3945 151.505 38.2362 150.821 38.0968C150.289 37.9828 149.757 37.8308 149.225 37.6408C148.706 37.4508 148.269 37.1848 147.914 36.8428C147.572 36.4882 147.401 36.0132 147.401 35.4178C147.401 34.5945 147.718 33.9105 148.351 33.3658C148.985 32.8085 149.871 32.5298 151.011 32.5298C152.063 32.5298 152.911 32.7832 153.557 33.2898C154.216 33.7965 154.602 34.5122 154.716 35.4368H152.778C152.715 35.0315 152.525 34.7148 152.208 34.4868C151.904 34.2588 151.493 34.1448 150.973 34.1448C150.467 34.1448 150.074 34.2525 149.795 34.4678C149.517 34.6705 149.377 34.9365 149.377 35.2658C149.377 35.5952 149.567 35.8548 149.947 36.0448C150.34 36.2348 150.853 36.4058 151.486 36.5578C152.12 36.6972 152.702 36.8618 153.234 37.0518C153.779 37.2292 154.216 37.4952 154.545 37.8498C154.875 38.2045 155.039 38.7238 155.039 39.4078C155.052 40.2692 154.716 40.9848 154.032 41.5548C153.361 42.1248 152.443 42.4098 151.277 42.4098ZM159.887 42.1818C158.963 42.1818 158.228 41.9602 157.683 41.5168C157.139 41.0608 156.866 40.2565 156.866 39.1038V34.4488H155.251V32.7578H156.866L157.113 30.3638H158.88V32.7578H161.54V34.4488H158.88V39.1038C158.88 39.6232 158.988 39.9842 159.203 40.1868C159.431 40.3768 159.818 40.4718 160.362 40.4718H161.445V42.1818H159.887Z" fill="#091E42"/>
<path d="M21.0908 64.2424H336.212" stroke="#DCDEEC" stroke-width="0.878788"/>
<rect x="21.0908" y="78.303" width="47.5758" height="28.0303" rx="14.0152" fill="#FFE5E7"/>
<path d="M35.5031 97.8182L32.8598 91.1113V97.8182H30.9194V87.7227H33.4784L36.403 95.2029L39.3417 87.7227H41.9007V97.8182H39.9604V91.055L37.2888 97.8182H35.5031ZM47.1135 97.9588C44.9341 97.9588 43.3031 96.2434 43.3031 94.064C43.3031 91.8705 44.9341 90.1692 47.1135 90.1692C49.2929 90.1692 50.9239 91.8705 50.9239 94.064C50.9239 96.2434 49.2929 97.9588 47.1135 97.9588ZM47.1135 96.2293C48.0837 96.2293 48.9132 95.456 48.9132 94.064C48.9132 92.672 48.0837 91.9127 47.1135 91.9127C46.1433 91.9127 45.3137 92.672 45.3137 94.064C45.3137 95.456 46.1433 96.2293 47.1135 96.2293ZM54.1255 93.7265V97.8182H52.1711V90.3098H53.9709V91.3784C54.5192 90.6332 55.2926 90.1692 56.2768 90.1692C57.7813 90.1692 58.8218 91.1534 58.8218 92.9673V97.8182H56.8814V93.6281C56.8814 92.5173 56.4455 91.8987 55.5597 91.8987C54.7864 91.8987 54.1255 92.5173 54.1255 93.7265Z" fill="#DC5172"/>
<path d="M94.4681 97.8182H93.4276V88.6647H90.039V87.7227H97.8567V88.6647H94.4681V97.8182ZM103.309 94.8233V90.4082H104.279V97.8182H103.365V96.4824C102.986 97.3401 102.086 97.9588 101.003 97.9588C99.4987 97.9588 98.5004 97.1011 98.5004 95.231V90.4082H99.4847V95.0201C99.4847 96.5246 100.23 97.1011 101.27 97.1011C102.451 97.1011 103.309 96.145 103.309 94.8233ZM109.322 97.9588C107.241 97.9588 105.863 96.3981 105.863 94.0499C105.863 91.8846 107.297 90.2676 109.265 90.2676C111.375 90.2676 112.753 91.969 112.584 94.3452H106.847C106.931 96.1028 107.859 97.1854 109.308 97.1854C110.545 97.1854 111.403 96.4965 111.642 95.3154H112.612C112.274 96.9605 111.023 97.9588 109.322 97.9588ZM109.251 91.0269C107.916 91.0269 106.974 92.0533 106.847 93.6703H111.557C111.473 92.0111 110.615 91.0269 109.251 91.0269Z" fill="#8F8F8F"/>
<path d="M143.721 97.8182L141.359 89.1568L138.982 97.8182H137.886L135.228 87.7227H136.255L138.434 96.2856L140.796 87.7227H141.921L144.255 96.3137L146.449 87.7227H147.489L144.832 97.8182H143.721ZM151.172 97.9588C149.091 97.9588 147.713 96.3981 147.713 94.0499C147.713 91.8846 149.147 90.2676 151.116 90.2676C153.225 90.2676 154.603 91.969 154.434 94.3452H148.697C148.782 96.1028 149.71 97.1854 151.158 97.1854C152.395 97.1854 153.253 96.4965 153.492 95.3154H154.462C154.125 96.9605 152.873 97.9588 151.172 97.9588ZM151.102 91.0269C149.766 91.0269 148.824 92.0533 148.697 93.6703H153.408C153.323 92.0111 152.466 91.0269 151.102 91.0269ZM155.375 94.1062C155.375 91.8284 156.64 90.2676 158.637 90.2676C159.748 90.2676 160.69 90.9004 161.182 91.9549V87.7227H162.166V97.8182H161.252V96.2574C160.732 97.3401 159.776 97.9588 158.637 97.9588C156.64 97.9588 155.375 96.384 155.375 94.1062ZM156.373 94.1062C156.373 95.9903 157.329 97.1011 158.778 97.1011C160.212 97.1011 161.196 95.9341 161.196 94.0781C161.196 92.208 160.184 91.1253 158.778 91.1253C157.329 91.1253 156.373 92.2221 156.373 94.1062Z" fill="#8F8F8F"/>
<path d="M189.65 97.8182H188.609V88.6647H185.221V87.7227H193.038V88.6647H189.65V97.8182ZM195.368 93.5016V97.8182H194.384V87.7227H195.368V91.7721C195.832 90.8863 196.676 90.2676 197.744 90.2676C199.291 90.2676 200.289 91.2519 200.289 93.0094V97.8182H199.305V93.3469C199.305 91.9268 198.658 91.1253 197.449 91.1253C196.296 91.1253 195.368 92.1236 195.368 93.5016ZM207.1 94.8233V90.4082H208.07V97.8182H207.156V96.4824C206.777 97.3401 205.877 97.9588 204.794 97.9588C203.29 97.9588 202.291 97.1011 202.291 95.231V90.4082H203.276V95.0201C203.276 96.5246 204.021 97.1011 205.061 97.1011C206.242 97.1011 207.1 96.145 207.1 94.8233Z" fill="#8F8F8F"/>
<path fill-rule="evenodd" clip-rule="evenodd" d="M32.0757 219.697C38.1424 219.697 43.0605 224.615 43.0605 230.682L43.0605 251.773C43.0605 257.84 38.1424 262.758 32.0757 262.758C26.0089 262.758 21.0908 257.84 21.0908 251.773L21.0908 230.682C21.0908 224.615 26.0089 219.697 32.0757 219.697Z" fill="#7551DC"/>
<path fill-rule="evenodd" clip-rule="evenodd" d="M73.3921 204.758C79.4588 204.758 84.3769 209.676 84.3769 215.742L84.3769 251.773C84.3769 257.839 79.4588 262.758 73.3921 262.758C67.3253 262.758 62.4072 257.84 62.4072 251.773L62.4072 215.742C62.4072 209.676 67.3253 204.758 73.3921 204.758Z" fill="#7551DC"/>
<path fill-rule="evenodd" clip-rule="evenodd" d="M115.061 151.479C121.128 151.426 126.089 156.3 126.143 162.367L126.578 251.579C126.632 257.645 121.758 262.607 115.691 262.66C109.624 262.714 104.663 257.84 104.609 251.773L104.174 162.561C104.12 156.494 108.995 151.533 115.061 151.479Z" fill="#7551DC"/>
<path fill-rule="evenodd" clip-rule="evenodd" d="M157.361 174.879C163.428 174.879 168.346 179.797 168.346 185.864L168.346 251.773C168.346 257.839 163.428 262.758 157.361 262.758C151.294 262.758 146.376 257.84 146.376 251.773L146.376 185.864C146.376 179.797 151.294 174.879 157.361 174.879Z" fill="#7551DC"/>
<path fill-rule="evenodd" clip-rule="evenodd" d="M198.677 198.606C204.744 198.606 209.662 203.524 209.662 209.591L209.662 251.773C209.662 257.84 204.744 262.758 198.677 262.758C192.61 262.758 187.692 257.84 187.692 251.773L187.692 209.591C187.692 203.524 192.61 198.606 198.677 198.606Z" fill="#7551DC"/>
<rect x="66" y="119.909" width="98.5758" height="28.0303" rx="8.78788" fill="#DAFFE9"/>
<path d="M80.4881 139.424L77.8447 132.717V139.424H75.9043V129.329H78.4634L81.388 136.809L84.3266 129.329H86.8857V139.424H84.9453V132.661L82.2738 139.424H80.4881ZM92.0984 139.565C89.919 139.565 88.288 137.849 88.288 135.67C88.288 133.477 89.919 131.775 92.0984 131.775C94.2778 131.775 95.9088 133.477 95.9088 135.67C95.9088 137.849 94.2778 139.565 92.0984 139.565ZM92.0984 137.835C93.0686 137.835 93.8982 137.062 93.8982 135.67C93.8982 134.278 93.0686 133.519 92.0984 133.519C91.1282 133.519 90.2987 134.278 90.2987 135.67C90.2987 137.062 91.1282 137.835 92.0984 137.835ZM103.497 137.02C103.497 138.595 102.302 139.565 100.165 139.565C98.0278 139.565 96.8327 138.538 96.678 136.865H98.5481C98.5621 137.639 99.223 138.131 100.193 138.131C100.952 138.131 101.529 137.892 101.529 137.357C101.529 136.879 101.22 136.682 100.502 136.542L99.1527 136.289C97.8028 136.05 96.9873 135.304 96.9873 134.137C96.9873 132.745 98.1825 131.775 100.053 131.775C101.937 131.775 103.23 132.774 103.371 134.391H101.501C101.43 133.659 100.882 133.209 100.053 133.209C99.3354 133.209 98.8574 133.477 98.8574 133.955C98.8574 134.405 99.1667 134.587 99.8416 134.714L101.29 134.981C102.752 135.262 103.497 135.937 103.497 137.02ZM109.349 137.526V139.227C108.871 139.466 108.421 139.565 107.844 139.565C106.298 139.565 105.327 138.679 105.327 136.992V133.589H103.809V131.916H105.327V129.694H107.268V131.916H109.419V133.589H107.268V136.542C107.268 137.414 107.662 137.765 108.365 137.765C108.73 137.765 109.068 137.681 109.349 137.526ZM120.469 139.424L119.709 137.259H115.787L115.013 139.424H112.862L116.658 129.329H118.992L122.761 139.424H120.469ZM117.769 131.663L116.391 135.558H119.119L117.769 131.663ZM126.56 139.565C124.394 139.565 122.904 137.962 122.904 135.67C122.904 133.42 124.451 131.775 126.56 131.775C128.514 131.775 129.962 133.097 130.201 135.122H128.149C128.05 134.123 127.446 133.505 126.56 133.505C125.547 133.505 124.901 134.334 124.901 135.67C124.901 137.02 125.533 137.835 126.56 137.835C127.46 137.835 128.036 137.245 128.149 136.218H130.201C129.976 138.285 128.57 139.565 126.56 139.565ZM136.124 137.526V139.227C135.646 139.466 135.196 139.565 134.62 139.565C133.073 139.565 132.103 138.679 132.103 136.992V133.589H130.584V131.916H132.103V129.694H134.043V131.916H136.195V133.589H134.043V136.542C134.043 137.414 134.437 137.765 135.14 137.765C135.506 137.765 135.843 137.681 136.124 137.526ZM139.652 130.172C139.652 130.833 139.118 131.325 138.344 131.325C137.585 131.325 137.051 130.833 137.051 130.172C137.051 129.483 137.585 128.991 138.344 128.991C139.118 128.991 139.652 129.483 139.652 130.172ZM139.342 139.424H137.388V131.916H139.342V139.424ZM147.845 131.916L145.089 139.424H142.952L140.182 131.916H142.291L144.077 137.203L145.876 131.916H147.845ZM151.704 139.551C149.454 139.551 147.949 137.99 147.949 135.642C147.949 133.406 149.51 131.775 151.676 131.775C154.052 131.775 155.627 133.702 155.275 136.148H149.946C150.073 137.371 150.663 138.046 151.661 138.046C152.519 138.046 153.096 137.624 153.321 136.879H155.261C154.839 138.581 153.532 139.551 151.704 139.551ZM151.633 133.209C150.719 133.209 150.143 133.8 149.974 134.911H153.208C153.152 133.87 152.561 133.209 151.633 133.209Z" fill="#0E803B"/>
<path d="M24.1842 292.818H23.214V284.157H21.3439V283.313H24.1842V292.818ZM31.8987 291.946V292.818H26.162V292.256L29.1991 288.825C30.352 287.517 30.7739 286.814 30.7739 285.9C30.7739 284.832 29.9865 284.044 28.8757 284.044C27.7227 284.044 26.9072 284.846 26.9072 286.027H25.9511C25.9511 284.368 27.1743 283.173 28.9179 283.173C30.577 283.173 31.8003 284.283 31.8003 285.816C31.8003 286.842 31.3925 287.616 29.9302 289.247L27.6102 291.946H31.8987ZM38.1942 292.818V291.468C37.7584 292.396 36.8585 292.959 35.7055 292.959C34.1729 292.959 33.1746 292.101 33.1746 290.765C33.1746 289.317 34.3276 288.558 36.5773 288.558C37.0272 288.558 37.3647 288.586 38.0958 288.642V288.024C38.0958 286.786 37.435 286.055 36.3101 286.055C35.1009 286.055 34.3416 286.8 34.3276 288.009H33.4277C33.4699 286.364 34.6088 285.268 36.296 285.268C38.0255 285.268 39.0379 286.28 39.0379 287.995V292.818H38.1942ZM34.1167 290.737C34.1167 291.637 34.8056 292.242 35.8461 292.242C37.224 292.242 38.0958 291.342 38.0958 289.95V289.289C37.4631 289.233 37.0272 289.219 36.6194 289.219C34.9322 289.219 34.1167 289.711 34.1167 290.737Z" fill="#8F8F8F"/>
<path d="M69.3868 292.945C67.5026 292.945 66.2091 291.834 66.1669 290.189H67.123C67.1793 291.384 68.0651 292.143 69.3868 292.143C70.7506 292.143 71.5802 291.398 71.5802 290.203C71.5802 289.064 70.6522 288.333 69.1899 288.333H68.2479V287.517H69.1618C70.3288 287.517 71.1443 286.772 71.1443 285.704C71.1443 284.677 70.3851 283.974 69.3024 283.974C68.1776 283.974 67.4323 284.677 67.3761 285.774H66.434C66.4762 284.283 67.7136 283.173 69.3305 283.173C71.0178 283.173 72.1567 284.199 72.1567 285.661C72.1567 286.646 71.5662 287.433 70.5257 287.869C71.8333 288.192 72.5926 289.036 72.5926 290.189C72.5926 291.82 71.299 292.945 69.3868 292.945ZM79.0642 292.818V291.468C78.6283 292.396 77.7284 292.959 76.5755 292.959C75.0429 292.959 74.0446 292.101 74.0446 290.765C74.0446 289.317 75.1975 288.558 77.4472 288.558C77.8972 288.558 78.2346 288.586 78.9658 288.642V288.024C78.9658 286.786 78.3049 286.055 77.1801 286.055C75.9709 286.055 75.2116 286.8 75.1975 288.009H74.2977C74.3398 286.364 75.4787 285.268 77.166 285.268C78.8955 285.268 79.9078 286.28 79.9078 287.995V292.818H79.0642ZM74.9866 290.737C74.9866 291.637 75.6756 292.242 76.7161 292.242C78.094 292.242 78.9658 291.342 78.9658 289.95V289.289C78.333 289.233 77.8972 289.219 77.4894 289.219C75.8021 289.219 74.9866 289.711 74.9866 290.737Z" fill="#8F8F8F"/>
<path d="M110.522 292.945C108.624 292.945 107.218 291.581 107.218 289.837C107.218 288.6 107.724 287.855 108.469 286.927L111.337 283.313H112.448L109.594 286.927C109.987 286.786 110.367 286.716 110.719 286.716C112.49 286.716 113.84 287.939 113.84 289.809C113.84 291.581 112.434 292.945 110.522 292.945ZM110.536 292.129C111.843 292.129 112.828 291.159 112.828 289.837C112.828 288.417 111.843 287.475 110.536 287.475C109.214 287.475 108.23 288.291 108.23 289.809C108.23 291.159 109.214 292.129 110.536 292.129ZM119.983 292.818V291.468C119.548 292.396 118.648 292.959 117.495 292.959C115.962 292.959 114.964 292.101 114.964 290.765C114.964 289.317 116.117 288.558 118.366 288.558C118.816 288.558 119.154 288.586 119.885 288.642V288.024C119.885 286.786 119.224 286.055 118.099 286.055C116.89 286.055 116.131 286.8 116.117 288.009H115.217C115.259 286.364 116.398 285.268 118.085 285.268C119.815 285.268 120.827 286.28 120.827 287.995V292.818H119.983ZM115.906 290.737C115.906 291.637 116.595 292.242 117.635 292.242C119.013 292.242 119.885 291.342 119.885 289.95V289.289C119.252 289.233 118.816 289.219 118.409 289.219C116.721 289.219 115.906 289.711 115.906 290.737Z" fill="#8F8F8F"/>
<path d="M151.839 283.187C153.737 283.187 155.143 284.551 155.143 286.294C155.143 287.461 154.679 288.192 153.877 289.205L151.023 292.818H149.898L152.752 289.191C152.373 289.345 151.979 289.401 151.628 289.401C149.856 289.401 148.52 288.178 148.52 286.322C148.52 284.551 149.926 283.187 151.839 283.187ZM151.824 284.002C150.489 284.002 149.533 284.972 149.533 286.294C149.533 287.714 150.489 288.656 151.824 288.656C153.132 288.656 154.13 287.841 154.13 286.322C154.13 284.972 153.132 284.002 151.824 284.002ZM161.286 292.818V291.468C160.85 292.396 159.95 292.959 158.797 292.959C157.265 292.959 156.267 292.101 156.267 290.765C156.267 289.317 157.42 288.558 159.669 288.558C160.119 288.558 160.457 288.586 161.188 288.642V288.024C161.188 286.786 160.527 286.055 159.402 286.055C158.193 286.055 157.434 286.8 157.42 288.009H156.52C156.562 286.364 157.701 285.268 159.388 285.268C161.117 285.268 162.13 286.28 162.13 287.995V292.818H161.286ZM157.209 290.737C157.209 291.637 157.898 292.242 158.938 292.242C160.316 292.242 161.188 291.342 161.188 289.95V289.289C160.555 289.233 160.119 289.219 159.711 289.219C158.024 289.219 157.209 289.711 157.209 290.737Z" fill="#8F8F8F"/>
<path d="M192.396 292.818H191.426V284.157H189.556V283.313H192.396V292.818ZM200.111 291.946V292.818H194.374V292.256L197.411 288.825C198.564 287.517 198.986 286.814 198.986 285.9C198.986 284.832 198.198 284.044 197.088 284.044C195.935 284.044 195.119 284.846 195.119 286.027H194.163C194.163 284.368 195.386 283.173 197.13 283.173C198.789 283.173 200.012 284.283 200.012 285.816C200.012 286.842 199.604 287.616 198.142 289.247L195.822 291.946H200.111ZM208.642 289.106C208.642 291.398 207.362 292.959 205.394 292.959C204.283 292.959 203.341 292.354 202.835 291.3V295.532H201.851V285.408H202.764V287.011C203.271 285.914 204.255 285.268 205.394 285.268C207.362 285.268 208.642 286.842 208.642 289.106ZM207.643 289.106C207.643 287.236 206.673 286.125 205.225 286.125C203.847 286.125 202.821 287.222 202.821 289.106C202.821 290.948 203.819 292.101 205.225 292.101C206.673 292.101 207.643 291.004 207.643 289.106Z" fill="#8F8F8F"/>
</svg>
