<svg width="192" height="61" viewBox="0 0 192 61" fill="none" xmlns="http://www.w3.org/2000/svg">
<rect x="0.767578" y="0.324707" width="190.466" height="60.3635" rx="30.1817" fill="#FFCC6A"/>
<path d="M34.1172 37.7964C30.2126 37.7964 27.1586 34.6264 27.1586 30.5479C27.1586 26.4887 30.2126 23.338 34.1172 23.338C37.7705 23.338 40.6312 25.7735 41.1144 29.3301H38.0024C37.6738 27.3392 36.1274 25.9668 34.1558 25.9668C31.7783 25.9668 30.174 27.8417 30.174 30.5479C30.174 33.2733 31.7783 35.1676 34.1558 35.1676C36.1274 35.1676 37.6545 33.7759 38.0024 31.785H41.1144C40.6312 35.3802 37.7705 37.7964 34.1172 37.7964ZM45.6208 32.5001V37.5065H42.934V27.1845H45.4082V29.1755C46.162 27.8611 47.7663 27.0686 49.4287 27.0686V29.852C47.1478 29.678 45.6208 30.2193 45.6208 32.5001ZM55.2333 37.6804C52.1405 37.6804 50.0723 35.5349 50.0723 32.3068C50.0723 29.2335 52.2179 26.9912 55.1946 26.9912C58.4613 26.9912 60.6262 29.6394 60.1429 33.0027H52.8171C52.991 34.6844 53.8029 35.6122 55.1753 35.6122C56.3544 35.6122 57.1469 35.0323 57.4561 34.0078H60.1236C59.5437 36.3467 57.7461 37.6804 55.2333 37.6804ZM55.1366 28.9628C53.8802 28.9628 53.0877 29.7747 52.8557 31.3017H57.3015C57.2242 29.8713 56.4124 28.9628 55.1366 28.9628ZM68.0893 37.5065V36.2307C67.4128 37.1972 66.3883 37.6998 64.9773 37.6998C62.8317 37.6998 61.4013 36.4433 61.4013 34.5104C61.4013 32.5001 63.025 31.4177 66.0404 31.4177C66.6203 31.4177 67.1228 31.4563 67.7607 31.5337V30.9151C67.7607 29.7554 67.1035 29.0788 65.9824 29.0788C64.8226 29.0788 64.1268 29.7554 64.0301 30.9151H61.6139C61.7686 28.5376 63.4889 26.9912 65.9824 26.9912C68.6885 26.9912 70.2735 28.4796 70.2735 31.0118V37.5065H68.0893ZM63.9335 34.4331C63.9335 35.3029 64.552 35.8441 65.5571 35.8441C66.9295 35.8441 67.7607 35.0903 67.7607 33.8919V33.1573C67.1228 33.0607 66.6783 33.022 66.2144 33.022C64.6873 33.022 63.9335 33.5053 63.9335 34.4331ZM78.8552 34.897V37.2359C78.198 37.5645 77.5795 37.6998 76.787 37.6998C74.6607 37.6998 73.327 36.482 73.327 34.1625V29.4847H71.2394V27.1845H73.327V24.1305H75.9945V27.1845H78.9519V29.4847H75.9945V33.5439C75.9945 34.7424 76.5357 35.2256 77.5022 35.2256C78.0047 35.2256 78.4686 35.1096 78.8552 34.897ZM84.8504 37.6804C81.7577 37.6804 79.6894 35.5349 79.6894 32.3068C79.6894 29.2335 81.835 26.9912 84.8117 26.9912C88.0784 26.9912 90.2433 29.6394 89.76 33.0027H82.4342C82.6081 34.6844 83.42 35.6122 84.7924 35.6122C85.9715 35.6122 86.764 35.0323 87.0733 34.0078H89.7407C89.1608 36.3467 87.3632 37.6804 84.8504 37.6804ZM84.7537 28.9628C83.4973 28.9628 82.7048 29.7747 82.4728 31.3017H86.9186C86.8413 29.8713 86.0295 28.9628 84.7537 28.9628ZM100.953 32.9834H98.7692V37.5065H95.8312V23.6279H100.953C104.336 23.6279 106.443 25.2323 106.443 28.2477C106.443 31.2631 104.336 32.9834 100.953 32.9834ZM100.934 26.1021H98.7692V30.5092H100.934C102.596 30.5092 103.524 29.6394 103.524 28.267C103.524 26.8946 102.596 26.1021 100.934 26.1021ZM112.582 37.6998C109.586 37.6998 107.343 35.3416 107.343 32.3455C107.343 29.3301 109.586 26.9912 112.582 26.9912C115.578 26.9912 117.82 29.3301 117.82 32.3455C117.82 35.3416 115.578 37.6998 112.582 37.6998ZM112.582 35.3222C113.915 35.3222 115.056 34.2591 115.056 32.3455C115.056 30.4319 113.915 29.3881 112.582 29.3881C111.248 29.3881 110.107 30.4319 110.107 32.3455C110.107 34.2591 111.248 35.3222 112.582 35.3222ZM128.252 34.2011C128.252 36.366 126.609 37.6998 123.671 37.6998C120.733 37.6998 119.09 36.2887 118.877 33.9885H121.448C121.467 35.0516 122.376 35.7282 123.71 35.7282C124.753 35.7282 125.546 35.3996 125.546 34.665C125.546 34.0078 125.121 33.7372 124.135 33.5439L122.279 33.196C120.424 32.8674 119.303 31.8429 119.303 30.2386C119.303 28.325 120.946 26.9912 123.516 26.9912C126.107 26.9912 127.885 28.3636 128.078 30.5865H125.507C125.411 29.5814 124.657 28.9628 123.516 28.9628C122.531 28.9628 121.873 29.3301 121.873 29.9873C121.873 30.6059 122.299 30.8571 123.226 31.0311L125.217 31.3984C127.228 31.785 128.252 32.7128 128.252 34.2011ZM136.296 34.897V37.2359C135.639 37.5645 135.02 37.6998 134.228 37.6998C132.102 37.6998 130.768 36.482 130.768 34.1625V29.4847H128.68V27.1845H130.768V24.1305H133.435V27.1845H136.393V29.4847H133.435V33.5439C133.435 34.7424 133.977 35.2256 134.943 35.2256C135.446 35.2256 135.91 35.1096 136.296 34.897Z" fill="#7551DC"/>
<g clip-path="url(#clip0_2007_1086)">
<mask id="mask0_2007_1086" style="mask-type:luminance" maskUnits="userSpaceOnUse" x="148" y="21" width="18" height="19">
<path d="M165.46 21.9156H148.278V39.0973H165.46V21.9156Z" fill="white"/>
</mask>
<g mask="url(#mask0_2007_1086)">
<path d="M156.004 22.4421C156.367 21.7401 157.371 21.7401 157.734 22.4421L160.045 26.9124C160.138 27.0915 160.284 27.2375 160.463 27.3301L164.934 29.6415C165.636 30.0045 165.636 31.0084 164.934 31.3714L160.463 33.6827C160.284 33.7754 160.138 33.9213 160.045 34.1005L157.734 38.5708C157.371 39.2728 156.367 39.2728 156.004 38.5708L153.693 34.1005C153.6 33.9213 153.454 33.7754 153.275 33.6827L148.805 31.3714C148.103 31.0084 148.103 30.0045 148.805 29.6415L153.275 27.3301C153.454 27.2375 153.6 27.0915 153.693 26.9124L156.004 22.4421Z" fill="#7551DC"/>
</g>
</g>
<defs>
<clipPath id="clip0_2007_1086">
<rect width="17.1817" height="17.1817" fill="white" transform="translate(148.278 21.9156)"/>
</clipPath>
</defs>
</svg>
