<svg width="247" height="108" viewBox="0 0 247 108" fill="none" xmlns="http://www.w3.org/2000/svg">
<g filter="url(#filter0_d_2039_81)">
<path d="M24 21C24 16.5817 27.5817 13 32 13H224C228.418 13 232 16.5817 232 21V51H24V21Z" fill="#7551DC"/>
<path d="M36.416 37L40.544 25.8H42.4L46.496 37H44.704L43.744 34.264H39.168L38.208 37H36.416ZM39.648 32.92H43.264L41.456 27.816L39.648 32.92ZM49.79 37.192C48.83 37.192 48.0727 36.8933 47.518 36.296C46.974 35.6987 46.702 34.808 46.702 33.624V29.064H48.398V33.448C48.398 34.984 49.0273 35.752 50.286 35.752C50.9153 35.752 51.4327 35.528 51.838 35.08C52.2433 34.632 52.446 33.992 52.446 33.16V29.064H54.142V37H52.638L52.51 35.608C52.2647 36.0987 51.902 36.488 51.422 36.776C50.9527 37.0533 50.4087 37.192 49.79 37.192ZM58.5875 34.568C58.1715 34.568 57.7875 34.52 57.4355 34.424L56.7475 35.096C56.8648 35.1707 57.0088 35.2347 57.1795 35.288C57.3502 35.3413 57.5902 35.3893 57.8995 35.432C58.2088 35.4747 58.6302 35.5173 59.1635 35.56C60.2195 35.656 60.9822 35.912 61.4515 36.328C61.9208 36.7333 62.1555 37.2773 62.1555 37.96C62.1555 38.4293 62.0275 38.872 61.7715 39.288C61.5262 39.7147 61.1368 40.056 60.6035 40.312C60.0808 40.5787 59.4088 40.712 58.5875 40.712C57.4782 40.712 56.5768 40.4987 55.8835 40.072C55.2008 39.656 54.8595 39.0213 54.8595 38.168C54.8595 37.8373 54.9448 37.5067 55.1155 37.176C55.2968 36.856 55.5795 36.552 55.9635 36.264C55.7395 36.168 55.5422 36.0667 55.3715 35.96C55.2115 35.8427 55.0675 35.7253 54.9395 35.608V35.224L56.3155 33.816C55.6968 33.2827 55.3875 32.584 55.3875 31.72C55.3875 31.1973 55.5102 30.7227 55.7555 30.296C56.0115 29.8587 56.3795 29.512 56.8595 29.256C57.3395 29 57.9155 28.872 58.5875 28.872C59.0355 28.872 59.4515 28.936 59.8355 29.064H62.7955V30.184L61.3875 30.264C61.6435 30.7013 61.7715 31.1867 61.7715 31.72C61.7715 32.2533 61.6435 32.7333 61.3875 33.16C61.1422 33.5867 60.7795 33.928 60.2995 34.184C59.8302 34.44 59.2595 34.568 58.5875 34.568ZM58.5875 33.24C59.0782 33.24 59.4728 33.112 59.7715 32.856C60.0808 32.5893 60.2355 32.216 60.2355 31.736C60.2355 31.2453 60.0808 30.872 59.7715 30.616C59.4728 30.36 59.0782 30.232 58.5875 30.232C58.0862 30.232 57.6808 30.36 57.3715 30.616C57.0728 30.872 56.9235 31.2453 56.9235 31.736C56.9235 32.216 57.0728 32.5893 57.3715 32.856C57.6808 33.112 58.0862 33.24 58.5875 33.24ZM56.4595 38.008C56.4595 38.4667 56.6622 38.808 57.0675 39.032C57.4728 39.2667 57.9795 39.384 58.5875 39.384C59.1742 39.384 59.6488 39.256 60.0115 39C60.3742 38.7547 60.5555 38.424 60.5555 38.008C60.5555 37.6987 60.4328 37.432 60.1875 37.208C59.9422 36.9947 59.4782 36.8613 58.7955 36.808C58.2835 36.776 57.8302 36.728 57.4355 36.664C57.0622 36.8667 56.8062 37.0853 56.6675 37.32C56.5288 37.5547 56.4595 37.784 56.4595 38.008ZM66.2763 37.192C65.3163 37.192 64.5589 36.8933 64.0043 36.296C63.4603 35.6987 63.1883 34.808 63.1883 33.624V29.064H64.8843V33.448C64.8843 34.984 65.5136 35.752 66.7723 35.752C67.4016 35.752 67.9189 35.528 68.3243 35.08C68.7296 34.632 68.9323 33.992 68.9323 33.16V29.064H70.6283V37H69.1243L68.9963 35.608C68.7509 36.0987 68.3883 36.488 67.9083 36.776C67.4389 37.0533 66.8949 37.192 66.2763 37.192ZM74.9938 37.192C73.9911 37.192 73.1644 36.9467 72.5137 36.456C71.8631 35.9653 71.4897 35.3147 71.3937 34.504H73.1057C73.1911 34.8667 73.3937 35.1813 73.7137 35.448C74.0337 35.704 74.4551 35.832 74.9777 35.832C75.4897 35.832 75.8631 35.7253 76.0978 35.512C76.3324 35.2987 76.4497 35.0533 76.4497 34.776C76.4497 34.3707 76.2844 34.0987 75.9538 33.96C75.6338 33.8107 75.1858 33.6773 74.6098 33.56C74.1618 33.464 73.7138 33.336 73.2657 33.176C72.8284 33.016 72.4604 32.792 72.1617 32.504C71.8737 32.2053 71.7297 31.8053 71.7297 31.304C71.7297 30.6107 71.9964 30.0347 72.5297 29.576C73.0631 29.1067 73.8098 28.872 74.7698 28.872C75.6551 28.872 76.3698 29.0853 76.9138 29.512C77.4684 29.9387 77.7937 30.5413 77.8898 31.32H76.2578C76.2044 30.9787 76.0444 30.712 75.7778 30.52C75.5218 30.328 75.1751 30.232 74.7378 30.232C74.3111 30.232 73.9804 30.3227 73.7457 30.504C73.5111 30.6747 73.3937 30.8987 73.3937 31.176C73.3937 31.4533 73.5537 31.672 73.8737 31.832C74.2044 31.992 74.6364 32.136 75.1698 32.264C75.7031 32.3813 76.1938 32.52 76.6418 32.68C77.1004 32.8293 77.4684 33.0533 77.7457 33.352C78.0231 33.6507 78.1618 34.088 78.1618 34.664C78.1724 35.3893 77.8898 35.992 77.3138 36.472C76.7484 36.952 75.9751 37.192 74.9938 37.192ZM82.0844 37C81.3057 37 80.687 36.8133 80.2284 36.44C79.7697 36.056 79.5404 35.3787 79.5404 34.408V30.488H78.1804V29.064H79.5404L79.7484 27.048H81.2364V29.064H83.4764V30.488H81.2364V34.408C81.2364 34.8453 81.327 35.1493 81.5084 35.32C81.7004 35.48 82.0257 35.56 82.4844 35.56H83.3964V37H82.0844ZM87.1764 37V35.784C87.9017 35.208 88.595 34.6267 89.256 34.04C89.918 33.4533 90.504 32.8773 91.016 32.312C91.539 31.736 91.95 31.176 92.248 30.632C92.547 30.0773 92.696 29.544 92.696 29.032C92.696 28.6907 92.638 28.3707 92.52 28.072C92.403 27.7627 92.211 27.5173 91.944 27.336C91.678 27.144 91.32 27.048 90.872 27.048C90.2 27.048 89.694 27.2613 89.352 27.688C89.022 28.1147 88.8617 28.6267 88.8724 29.224H87.2244C87.235 28.4347 87.4004 27.7733 87.7204 27.24C88.051 26.7067 88.4884 26.3013 89.032 26.024C89.587 25.7467 90.211 25.608 90.904 25.608C91.96 25.608 92.803 25.9067 93.432 26.504C94.072 27.0907 94.392 27.912 94.392 28.968C94.392 29.5973 94.238 30.2213 93.928 30.84C93.63 31.4587 93.235 32.056 92.744 32.632C92.264 33.1973 91.747 33.7307 91.192 34.232C90.638 34.7333 90.11 35.1867 89.608 35.592H94.728V37H87.1764ZM99.952 37.192C98.938 37.192 98.064 36.952 97.328 36.472C96.602 35.9813 96.042 35.304 95.648 34.44C95.264 33.5653 95.072 32.552 95.072 31.4C95.072 30.248 95.264 29.24 95.648 28.376C96.042 27.5013 96.602 26.824 97.328 26.344C98.064 25.8533 98.938 25.608 99.952 25.608C100.965 25.608 101.834 25.8533 102.56 26.344C103.285 26.824 103.84 27.5013 104.224 28.376C104.618 29.24 104.816 30.248 104.816 31.4C104.816 32.552 104.618 33.5653 104.224 34.44C103.84 35.304 103.285 35.9813 102.56 36.472C101.834 36.952 100.965 37.192 99.952 37.192ZM99.952 35.672C100.56 35.672 101.098 35.5013 101.568 35.16C102.048 34.8187 102.421 34.328 102.688 33.688C102.954 33.048 103.088 32.2853 103.088 31.4C103.088 30.5147 102.954 29.752 102.688 29.112C102.421 28.472 102.048 27.9813 101.568 27.64C101.098 27.2987 100.56 27.128 99.952 27.128C99.333 27.128 98.789 27.2987 98.32 27.64C97.85 27.9813 97.482 28.472 97.216 29.112C96.949 29.752 96.816 30.5147 96.816 31.4C96.816 32.2853 96.949 33.048 97.216 33.688C97.482 34.328 97.85 34.8187 98.32 35.16C98.789 35.5013 99.333 35.672 99.952 35.672ZM105.397 37V35.784C106.122 35.208 106.816 34.6267 107.477 34.04C108.138 33.4533 108.725 32.8773 109.237 32.312C109.76 31.736 110.17 31.176 110.469 30.632C110.768 30.0773 110.917 29.544 110.917 29.032C110.917 28.6907 110.858 28.3707 110.741 28.072C110.624 27.7627 110.432 27.5173 110.165 27.336C109.898 27.144 109.541 27.048 109.093 27.048C108.421 27.048 107.914 27.2613 107.573 27.688C107.242 28.1147 107.082 28.6267 107.093 29.224H105.445C105.456 28.4347 105.621 27.7733 105.941 27.24C106.272 26.7067 106.709 26.3013 107.253 26.024C107.808 25.7467 108.432 25.608 109.125 25.608C110.181 25.608 111.024 25.9067 111.653 26.504C112.293 27.0907 112.613 27.912 112.613 28.968C112.613 29.5973 112.458 30.2213 112.149 30.84C111.85 31.4587 111.456 32.056 110.965 32.632C110.485 33.1973 109.968 33.7307 109.413 34.232C108.858 34.7333 108.33 35.1867 107.829 35.592H112.949V37H105.397ZM118.718 37V34.76H113.102V33.416L118.446 25.8H120.398V33.288H121.966V34.76H120.398V37H118.718ZM114.942 33.288H118.814V27.672L114.942 33.288Z" fill="white"/>
<path d="M171.996 36.514L169.35 26.7H170.946L172.892 34.82L175.132 26.7H176.77L178.94 34.82L180.886 26.7H182.482L179.794 36.5H178.058L175.916 28.814L173.704 36.5L171.996 36.514ZM185.471 36.668C184.79 36.668 184.183 36.5187 183.651 36.22C183.128 35.912 182.718 35.4873 182.419 34.946C182.12 34.4047 181.971 33.7747 181.971 33.056C181.971 32.328 182.116 31.6887 182.405 31.138C182.704 30.5873 183.114 30.158 183.637 29.85C184.169 29.542 184.785 29.388 185.485 29.388C186.166 29.388 186.759 29.542 187.263 29.85C187.767 30.1487 188.159 30.55 188.439 31.054C188.719 31.558 188.859 32.1133 188.859 32.72C188.859 32.8133 188.854 32.916 188.845 33.028C188.845 33.1307 188.84 33.2473 188.831 33.378H183.427C183.474 34.05 183.693 34.5633 184.085 34.918C184.486 35.2633 184.948 35.436 185.471 35.436C185.891 35.436 186.241 35.3427 186.521 35.156C186.81 34.96 187.025 34.6987 187.165 34.372H188.649C188.462 35.0253 188.089 35.5713 187.529 36.01C186.978 36.4487 186.292 36.668 185.471 36.668ZM185.471 30.606C184.976 30.606 184.538 30.7553 184.155 31.054C183.772 31.3433 183.539 31.782 183.455 32.37H187.375C187.347 31.8287 187.156 31.3993 186.801 31.082C186.446 30.7647 186.003 30.606 185.471 30.606ZM192.807 36.668C192.125 36.668 191.519 36.5187 190.987 36.22C190.464 35.912 190.053 35.4873 189.755 34.946C189.456 34.4047 189.307 33.7747 189.307 33.056C189.307 32.328 189.451 31.6887 189.741 31.138C190.039 30.5873 190.45 30.158 190.973 29.85C191.505 29.542 192.121 29.388 192.821 29.388C193.502 29.388 194.095 29.542 194.599 29.85C195.103 30.1487 195.495 30.55 195.775 31.054C196.055 31.558 196.195 32.1133 196.195 32.72C196.195 32.8133 196.19 32.916 196.181 33.028C196.181 33.1307 196.176 33.2473 196.167 33.378H190.763C190.809 34.05 191.029 34.5633 191.421 34.918C191.822 35.2633 192.284 35.436 192.807 35.436C193.227 35.436 193.577 35.3427 193.857 35.156C194.146 34.96 194.361 34.6987 194.501 34.372H195.985C195.798 35.0253 195.425 35.5713 194.865 36.01C194.314 36.4487 193.628 36.668 192.807 36.668ZM192.807 30.606C192.312 30.606 191.873 30.7553 191.491 31.054C191.108 31.3433 190.875 31.782 190.791 32.37H194.711C194.683 31.8287 194.491 31.3993 194.137 31.082C193.782 30.7647 193.339 30.606 192.807 30.606ZM196.895 36.5V26.42H198.379V32.426L201.039 29.556H202.817L199.863 32.706L203.251 36.5H201.375L198.379 32.944V36.5H196.895ZM204.624 36.5V28.38L203.042 28.744V27.652L205.212 26.7H206.164V36.5H204.624Z" fill="white"/>
</g>
<path d="M232 51H24V170H232V51Z" fill="white"/>
<path d="M52 69.25C50.0716 69.25 48.1866 69.8218 46.5832 70.8932C44.9798 71.9645 43.7301 73.4873 42.9922 75.2688C42.2542 77.0504 42.0611 79.0108 42.4373 80.9021C42.8136 82.7934 43.7422 84.5307 45.1057 85.8943C46.4693 87.2579 48.2066 88.1865 50.0979 88.5627C51.9892 88.9389 53.9496 88.7458 55.7312 88.0078C57.5127 87.2699 59.0355 86.0202 60.1068 84.4168C61.1782 82.8134 61.75 80.9284 61.75 79C61.7473 76.415 60.7192 73.9366 58.8913 72.1087C57.0634 70.2808 54.585 69.2527 52 69.25ZM56.2806 77.2806L51.0306 82.5306C50.961 82.6004 50.8783 82.6557 50.7872 82.6934C50.6962 82.7312 50.5986 82.7506 50.5 82.7506C50.4014 82.7506 50.3038 82.7312 50.2128 82.6934C50.1218 82.6557 50.039 82.6004 49.9694 82.5306L47.7194 80.2806C47.5786 80.1399 47.4996 79.949 47.4996 79.75C47.4996 79.551 47.5786 79.3601 47.7194 79.2194C47.8601 79.0786 48.051 78.9996 48.25 78.9996C48.449 78.9996 48.6399 79.0786 48.7806 79.2194L50.5 80.9397L55.2194 76.2194C55.2891 76.1497 55.3718 76.0944 55.4628 76.0567C55.5539 76.019 55.6515 75.9996 55.75 75.9996C55.8486 75.9996 55.9461 76.019 56.0372 76.0567C56.1282 76.0944 56.2109 76.1497 56.2806 76.2194C56.3503 76.2891 56.4056 76.3718 56.4433 76.4628C56.481 76.5539 56.5004 76.6515 56.5004 76.75C56.5004 76.8485 56.481 76.9461 56.4433 77.0372C56.4056 77.1282 56.3503 77.2109 56.2806 77.2806Z" fill="#7551DC"/>
<path d="M102.667 69.25C100.739 69.25 98.8542 69.8218 97.2502 70.8932C95.6472 71.9645 94.3972 73.4873 93.6592 75.2688C92.9212 77.0504 92.7282 79.0108 93.1042 80.9021C93.4812 82.7934 94.4092 84.5307 95.7732 85.8943C97.1362 87.2579 98.8742 88.1865 100.765 88.5627C102.656 88.9389 104.617 88.7458 106.398 88.0078C108.18 87.2699 109.702 86.0202 110.774 84.4168C111.845 82.8134 112.417 80.9284 112.417 79C112.414 76.415 111.386 73.9366 109.558 72.1087C107.73 70.2808 105.252 69.2527 102.667 69.25ZM106.948 77.2806L101.698 82.5306C101.628 82.6004 101.545 82.6557 101.454 82.6934C101.363 82.7312 101.266 82.7506 101.167 82.7506C101.068 82.7506 100.971 82.7312 100.88 82.6934C100.789 82.6557 100.706 82.6004 100.636 82.5306L98.3862 80.2806C98.2462 80.1399 98.1672 79.949 98.1672 79.75C98.1672 79.551 98.2462 79.3601 98.3862 79.2194C98.5272 79.0786 98.7182 78.9996 98.9172 78.9996C99.1162 78.9996 99.3072 79.0786 99.4482 79.2194L101.167 80.9397L105.886 76.2194C105.956 76.1497 106.039 76.0944 106.13 76.0567C106.221 76.019 106.318 75.9996 106.417 75.9996C106.516 75.9996 106.613 76.019 106.704 76.0567C106.795 76.0944 106.878 76.1497 106.948 76.2194C107.017 76.2891 107.073 76.3718 107.11 76.4628C107.148 76.5539 107.167 76.6515 107.167 76.75C107.167 76.8485 107.148 76.9461 107.11 77.0372C107.073 77.1282 107.017 77.2109 106.948 77.2806Z" fill="#7551DC"/>
<path d="M153.333 69.25C151.405 69.25 149.52 69.8218 147.916 70.8932C146.313 71.9645 145.063 73.4873 144.325 75.2688C143.587 77.0504 143.394 79.0108 143.77 80.9021C144.147 82.7934 145.075 84.5307 146.439 85.8943C147.802 87.2579 149.54 88.1865 151.431 88.5627C153.322 88.9389 155.283 88.7458 157.064 88.0078C158.846 87.2699 160.368 86.0202 161.44 84.4168C162.511 82.8134 163.083 80.9284 163.083 79C163.08 76.415 162.052 73.9366 160.224 72.1087C158.396 70.2808 155.918 69.2527 153.333 69.25ZM157.614 77.2806L152.364 82.5306C152.294 82.6004 152.211 82.6557 152.12 82.6934C152.029 82.7312 151.932 82.7506 151.833 82.7506C151.734 82.7506 151.637 82.7312 151.546 82.6934C151.455 82.6557 151.372 82.6004 151.302 82.5306L149.052 80.2806C148.912 80.1399 148.833 79.949 148.833 79.75C148.833 79.551 148.912 79.3601 149.052 79.2194C149.193 79.0786 149.384 78.9996 149.583 78.9996C149.782 78.9996 149.973 79.0786 150.114 79.2194L151.833 80.9397L156.552 76.2194C156.622 76.1497 156.705 76.0944 156.796 76.0567C156.887 76.019 156.984 75.9996 157.083 75.9996C157.182 75.9996 157.279 76.019 157.37 76.0567C157.461 76.0944 157.544 76.1497 157.614 76.2194C157.683 76.2891 157.739 76.3718 157.776 76.4628C157.814 76.5539 157.833 76.6515 157.833 76.75C157.833 76.8485 157.814 76.9461 157.776 77.0372C157.739 77.1282 157.683 77.2109 157.614 77.2806Z" fill="#7551DC"/>
<path d="M204 69.25C202.072 69.25 200.187 69.8218 198.583 70.8932C196.98 71.9645 195.73 73.4873 194.992 75.2688C194.254 77.0504 194.061 79.0108 194.437 80.9021C194.814 82.7934 195.742 84.5307 197.106 85.8943C198.469 87.2579 200.207 88.1865 202.098 88.5627C203.989 88.9389 205.95 88.7458 207.731 88.0078C209.513 87.2699 211.035 86.0202 212.107 84.4168C213.178 82.8134 213.75 80.9284 213.75 79C213.747 76.415 212.719 73.9366 210.891 72.1087C209.063 70.2808 206.585 69.2527 204 69.25ZM208.281 77.2806L203.031 82.5306C202.961 82.6004 202.878 82.6557 202.787 82.6934C202.696 82.7312 202.599 82.7506 202.5 82.7506C202.401 82.7506 202.304 82.7312 202.213 82.6934C202.122 82.6557 202.039 82.6004 201.969 82.5306L199.719 80.2806C199.579 80.1399 199.5 79.949 199.5 79.75C199.5 79.551 199.579 79.3601 199.719 79.2194C199.86 79.0786 200.051 78.9996 200.25 78.9996C200.449 78.9996 200.64 79.0786 200.781 79.2194L202.5 80.9397L207.219 76.2194C207.289 76.1497 207.372 76.0944 207.463 76.0567C207.554 76.019 207.651 75.9996 207.75 75.9996C207.849 75.9996 207.946 76.019 208.037 76.0567C208.128 76.0944 208.211 76.1497 208.281 76.2194C208.35 76.2891 208.406 76.3718 208.443 76.4628C208.481 76.5539 208.5 76.6515 208.5 76.75C208.5 76.8485 208.481 76.9461 208.443 77.0372C208.406 77.1282 208.35 77.2109 208.281 77.2806Z" fill="#7551DC"/>
<path d="M59 107H44C41.7909 107 40 108.791 40 111V126C40 128.209 41.7909 130 44 130H59C61.2091 130 63 128.209 63 126V111C63 108.791 61.2091 107 59 107Z" fill="#FCEBD1"/>
<path d="M110 107H95C92.7909 107 91 108.791 91 111V126C91 128.209 92.7909 130 95 130H110C112.209 130 114 128.209 114 126V111C114 108.791 112.209 107 110 107Z" fill="#FCEBD1"/>
<path d="M161 107H146C143.791 107 142 108.791 142 111V126C142 128.209 143.791 130 146 130H161C163.209 130 165 128.209 165 126V111C165 108.791 163.209 107 161 107Z" fill="#FCEBD1"/>
<path d="M212 107H197C194.791 107 193 108.791 193 111V126C193 128.209 194.791 130 197 130H212C214.209 130 216 128.209 216 126V111C216 108.791 214.209 107 212 107Z" fill="#FCEBD1"/>
<defs>
<filter id="filter0_d_2039_81" x="-10.2351" y="0.284101" width="256.907" height="86.9072" filterUnits="userSpaceOnUse" color-interpolation-filters="sRGB">
<feFlood flood-opacity="0" result="BackgroundImageFix"/>
<feColorMatrix in="SourceAlpha" type="matrix" values="0 0 0 0 0 0 0 0 0 0 0 0 0 0 0 0 0 0 127 0" result="hardAlpha"/>
<feOffset dx="-9.78145" dy="11.7377"/>
<feGaussianBlur stdDeviation="12.2268"/>
<feComposite in2="hardAlpha" operator="out"/>
<feColorMatrix type="matrix" values="0 0 0 0 0.384371 0 0 0 0 0.102708 0 0 0 0 0.483333 0 0 0 0.05 0"/>
<feBlend mode="normal" in2="BackgroundImageFix" result="effect1_dropShadow_2039_81"/>
<feBlend mode="normal" in="SourceGraphic" in2="effect1_dropShadow_2039_81" result="shape"/>
</filter>
</defs>
</svg>
