<svg width="256" height="116" viewBox="0 0 256 116" fill="none" xmlns="http://www.w3.org/2000/svg">
<g filter="url(#filter0_d_2011_682)">
<rect x="24" y="13" width="154.541" height="66.5408" rx="33.2704" fill="white" shape-rendering="crispEdges"/>
<circle cx="57.2704" cy="46.2704" r="21.2704" fill="#FFCC6A"/>
<path d="M57.3955 41.5203C56.4313 41.5203 55.4888 41.8062 54.6871 42.3419C53.8854 42.8776 53.2606 43.639 52.8916 44.5297C52.5226 45.4205 52.4261 46.4007 52.6142 47.3464C52.8023 48.292 53.2666 49.1607 53.9484 49.8425C54.6301 50.5243 55.4988 50.9886 56.4444 51.1767C57.3901 51.3648 58.3703 51.2682 59.2611 50.8992C60.1519 50.5303 60.9132 49.9054 61.4489 49.1037C61.9846 48.302 62.2705 47.3595 62.2705 46.3953C62.2692 45.1028 61.7551 43.8636 60.8412 42.9497C59.9272 42.0357 58.688 41.5217 57.3955 41.5203ZM57.3955 48.8328C56.9134 48.8328 56.4422 48.6899 56.0413 48.422C55.6405 48.1542 55.328 47.7735 55.1436 47.3281C54.9591 46.8827 54.9108 46.3926 55.0048 45.9198C55.0989 45.447 55.331 45.0126 55.6719 44.6718C56.0128 44.3309 56.4471 44.0987 56.92 44.0047C57.3928 43.9106 57.8829 43.9589 58.3283 44.1434C58.7737 44.3279 59.1544 44.6403 59.4222 45.0411C59.6901 45.442 59.833 45.9132 59.833 46.3953C59.833 47.0418 59.5762 47.6618 59.1191 48.1189C58.662 48.576 58.042 48.8328 57.3955 48.8328ZM62.2705 35.4266H52.5205C50.9049 35.4285 49.356 36.0711 48.2137 37.2135C47.0713 38.3559 46.4286 39.9047 46.4268 41.5203V51.2703C46.4286 52.8859 47.0713 54.4348 48.2137 55.5772C49.356 56.7196 50.9049 57.3622 52.5205 57.3641H62.2705C63.8861 57.3622 65.435 56.7196 66.5774 55.5772C67.7198 54.4348 68.3624 52.8859 68.3643 51.2703V41.5203C68.3624 39.9047 67.7198 38.3559 66.5774 37.2135C65.435 36.0711 63.8861 35.4285 62.2705 35.4266ZM65.9268 51.2703C65.9268 52.24 65.5415 53.17 64.8559 53.8557C64.1702 54.5414 63.2402 54.9266 62.2705 54.9266H52.5205C51.5508 54.9266 50.6208 54.5414 49.9351 53.8557C49.2495 53.17 48.8643 52.24 48.8643 51.2703V41.5203C48.8643 40.5506 49.2495 39.6206 49.9351 38.935C50.6208 38.2493 51.5508 37.8641 52.5205 37.8641H62.2705C63.2402 37.8641 64.1702 38.2493 64.8559 38.935C65.5415 39.6206 65.9268 40.5506 65.9268 41.5203V51.2703ZM64.3018 41.1141C64.3018 41.4355 64.2065 41.7496 64.0279 42.0169C63.8493 42.2841 63.5955 42.4924 63.2986 42.6154C63.0017 42.7384 62.675 42.7706 62.3597 42.7079C62.0445 42.6452 61.755 42.4904 61.5277 42.2631C61.3004 42.0359 61.1457 41.7463 61.083 41.4311C61.0203 41.1159 61.0525 40.7891 61.1755 40.4922C61.2984 40.1953 61.5067 39.9415 61.774 39.7629C62.0412 39.5844 62.3554 39.4891 62.6768 39.4891C63.1077 39.4891 63.5211 39.6603 63.8258 39.965C64.1306 40.2698 64.3018 40.6831 64.3018 41.1141Z" fill="#7551DC"/>
<path d="M93.501 44.5344C92.3597 44.5344 91.357 44.3104 90.493 43.8624C89.629 43.4144 88.957 42.7744 88.477 41.9424C87.997 41.1211 87.757 40.1504 87.757 39.0304C87.757 37.8891 87.949 36.8277 88.333 35.8464C88.7277 34.8651 89.277 34.0117 89.981 33.2864C90.6957 32.5504 91.5383 31.9797 92.509 31.5744C93.4903 31.1584 94.573 30.9504 95.757 30.9504C96.9517 30.9504 97.9863 31.1797 98.861 31.6384C99.7463 32.0971 100.429 32.7371 100.909 33.5584C101.4 34.3691 101.645 35.3131 101.645 36.3904C101.645 37.0197 101.57 37.6277 101.421 38.2144C101.272 38.8011 101.042 39.3344 100.733 39.8144C100.434 40.2837 100.072 40.6624 99.645 40.9504C99.2183 41.2277 98.7223 41.3664 98.157 41.3664C97.485 41.3664 96.9943 41.1637 96.685 40.7584C96.3863 40.3531 96.2797 39.8251 96.365 39.1744L96.413 38.6464L96.701 39.2384C96.4343 39.8997 96.013 40.4224 95.437 40.8064C94.8717 41.1797 94.2477 41.3664 93.565 41.3664C92.7757 41.3664 92.1517 41.1264 91.693 40.6464C91.245 40.1557 91.021 39.4891 91.021 38.6464C91.021 38.0597 91.1117 37.4997 91.293 36.9664C91.485 36.4331 91.7463 35.9584 92.077 35.5424C92.4077 35.1157 92.8023 34.7797 93.261 34.5344C93.7303 34.2891 94.2477 34.1664 94.813 34.1664C95.453 34.1664 95.9597 34.3371 96.333 34.6784C96.7063 35.0091 96.9303 35.4944 97.005 36.1344L96.669 36.3424L97.037 34.3264H98.365L97.581 38.8064C97.5063 39.2437 97.5277 39.6011 97.645 39.8784C97.7623 40.1451 98.0077 40.2784 98.381 40.2784C98.7117 40.2784 98.9997 40.1611 99.245 39.9264C99.4903 39.6917 99.6983 39.3877 99.869 39.0144C100.04 38.6304 100.168 38.2144 100.253 37.7664C100.338 37.3184 100.381 36.8811 100.381 36.4544C100.381 35.5371 100.184 34.7531 99.789 34.1024C99.405 33.4517 98.8557 32.9504 98.141 32.5984C97.4263 32.2357 96.573 32.0544 95.581 32.0544C94.621 32.0544 93.741 32.2304 92.941 32.5824C92.141 32.9344 91.4477 33.4251 90.861 34.0544C90.2743 34.6731 89.821 35.3984 89.501 36.2304C89.181 37.0624 89.021 37.9531 89.021 38.9024C89.021 39.8624 89.2077 40.6784 89.581 41.3504C89.965 42.0224 90.509 42.5291 91.213 42.8704C91.9277 43.2224 92.7703 43.3984 93.741 43.3984C94.2103 43.3984 94.6743 43.3504 95.133 43.2544C95.6023 43.1691 96.0343 43.0357 96.429 42.8544L96.701 43.9264C96.2103 44.1291 95.693 44.2784 95.149 44.3744C94.6157 44.4811 94.0663 44.5344 93.501 44.5344ZM94.061 40.1664C94.477 40.1664 94.861 40.0544 95.213 39.8304C95.565 39.5957 95.8583 39.2757 96.093 38.8704C96.3277 38.4544 96.4663 37.9797 96.509 37.4464C96.5517 37.0624 96.5143 36.7157 96.397 36.4064C96.2903 36.0864 96.109 35.8357 95.853 35.6544C95.6077 35.4624 95.2877 35.3664 94.893 35.3664C94.5197 35.3664 94.1783 35.4517 93.869 35.6224C93.5703 35.7931 93.3143 36.0224 93.101 36.3104C92.8983 36.5984 92.7383 36.9237 92.621 37.2864C92.5143 37.6491 92.461 38.0171 92.461 38.3904C92.461 38.9237 92.5943 39.3557 92.861 39.6864C93.1277 40.0064 93.5277 40.1664 94.061 40.1664ZM104.487 41.2704V37.1104L100.791 30.0704H102.599L105.511 35.9904H105.079L107.959 30.0704H109.751L106.087 37.1104V41.2704H104.487ZM112.452 41.4624C111.694 41.4624 111.012 41.2917 110.404 40.9504C109.806 40.5984 109.332 40.1077 108.98 39.4784C108.638 38.8384 108.468 38.0971 108.468 37.2544C108.468 36.4117 108.644 35.6757 108.996 35.0464C109.348 34.4064 109.828 33.9157 110.436 33.5744C111.044 33.2224 111.721 33.0464 112.468 33.0464C113.236 33.0464 113.918 33.2224 114.516 33.5744C115.124 33.9157 115.598 34.4011 115.94 35.0304C116.292 35.6597 116.468 36.4011 116.468 37.2544C116.468 38.0971 116.292 38.8384 115.94 39.4784C115.588 40.1077 115.108 40.5984 114.5 40.9504C113.902 41.2917 113.22 41.4624 112.452 41.4624ZM112.452 40.0864C112.889 40.0864 113.284 39.9851 113.636 39.7824C113.998 39.5691 114.286 39.2491 114.5 38.8224C114.724 38.3957 114.836 37.8731 114.836 37.2544C114.836 36.6251 114.729 36.1024 114.516 35.6864C114.302 35.2597 114.014 34.9451 113.652 34.7424C113.3 34.5291 112.91 34.4224 112.484 34.4224C112.068 34.4224 111.673 34.5291 111.3 34.7424C110.937 34.9451 110.644 35.2597 110.42 35.6864C110.206 36.1024 110.1 36.6251 110.1 37.2544C110.1 37.8731 110.206 38.3957 110.42 38.8224C110.644 39.2491 110.932 39.5691 111.284 39.7824C111.646 39.9851 112.036 40.0864 112.452 40.0864ZM120.318 41.4624C119.689 41.4624 119.145 41.3344 118.686 41.0784C118.227 40.8224 117.87 40.4384 117.614 39.9264C117.369 39.4037 117.246 38.7531 117.246 37.9744V33.2384H118.846V37.8144C118.846 38.5717 119.006 39.1424 119.326 39.5264C119.657 39.9104 120.131 40.1024 120.75 40.1024C121.177 40.1024 121.555 40.0011 121.886 39.7984C122.227 39.5957 122.494 39.3024 122.686 38.9184C122.878 38.5344 122.974 38.0651 122.974 37.5104V33.2384H124.574V41.2704H123.15L123.038 39.8944C122.793 40.3744 122.43 40.7584 121.95 41.0464C121.481 41.3237 120.937 41.4624 120.318 41.4624ZM125.789 41.2704V33.2384H127.229L127.373 34.7584C127.554 34.3957 127.784 34.0917 128.061 33.8464C128.349 33.5904 128.685 33.3931 129.069 33.2544C129.464 33.1157 129.906 33.0464 130.397 33.0464V34.7264H129.869C129.528 34.7264 129.208 34.7691 128.909 34.8544C128.61 34.9397 128.344 35.0784 128.109 35.2704C127.885 35.4624 127.709 35.7237 127.581 36.0544C127.453 36.3851 127.389 36.7957 127.389 37.2864V41.2704H125.789ZM135.931 41.4624C134.832 41.4624 133.883 41.2224 133.083 40.7424C132.283 40.2517 131.664 39.5744 131.227 38.7104C130.8 37.8357 130.587 36.8224 130.587 35.6704C130.587 34.5291 130.8 33.5211 131.227 32.6464C131.664 31.7717 132.283 31.0944 133.083 30.6144C133.883 30.1237 134.832 29.8784 135.931 29.8784C137.232 29.8784 138.293 30.1931 139.115 30.8224C139.936 31.4517 140.453 32.3371 140.667 33.4784H138.923C138.752 32.8171 138.416 32.2891 137.915 31.8944C137.424 31.4997 136.757 31.3024 135.915 31.3024C135.168 31.3024 134.512 31.4784 133.947 31.8304C133.392 32.1824 132.965 32.6837 132.667 33.3344C132.368 33.9851 132.219 34.7637 132.219 35.6704C132.219 36.5771 132.368 37.3611 132.667 38.0224C132.965 38.6731 133.392 39.1744 133.947 39.5264C134.512 39.8677 135.168 40.0384 135.915 40.0384C136.757 40.0384 137.424 39.8517 137.915 39.4784C138.416 39.0944 138.747 38.5771 138.907 37.9264H140.667C140.453 39.0357 139.936 39.9051 139.115 40.5344C138.293 41.1531 137.232 41.4624 135.931 41.4624ZM145.221 41.4624C144.464 41.4624 143.781 41.2917 143.173 40.9504C142.576 40.5984 142.101 40.1077 141.749 39.4784C141.408 38.8384 141.237 38.0971 141.237 37.2544C141.237 36.4117 141.413 35.6757 141.765 35.0464C142.117 34.4064 142.597 33.9157 143.205 33.5744C143.813 33.2224 144.49 33.0464 145.237 33.0464C146.005 33.0464 146.688 33.2224 147.285 33.5744C147.893 33.9157 148.368 34.4011 148.709 35.0304C149.061 35.6597 149.237 36.4011 149.237 37.2544C149.237 38.0971 149.061 38.8384 148.709 39.4784C148.357 40.1077 147.877 40.5984 147.269 40.9504C146.672 41.2917 145.989 41.4624 145.221 41.4624ZM145.221 40.0864C145.658 40.0864 146.053 39.9851 146.405 39.7824C146.768 39.5691 147.056 39.2491 147.269 38.8224C147.493 38.3957 147.605 37.8731 147.605 37.2544C147.605 36.6251 147.498 36.1024 147.285 35.6864C147.072 35.2597 146.784 34.9451 146.421 34.7424C146.069 34.5291 145.68 34.4224 145.253 34.4224C144.837 34.4224 144.442 34.5291 144.069 34.7424C143.706 34.9451 143.413 35.2597 143.189 35.6864C142.976 36.1024 142.869 36.6251 142.869 37.2544C142.869 37.8731 142.976 38.3957 143.189 38.8224C143.413 39.2491 143.701 39.5691 144.053 39.7824C144.416 39.9851 144.805 40.0864 145.221 40.0864Z" fill="#121212"/>
<path d="M88.257 59.2704V51.9984L86.901 52.2984V51.6024L88.593 50.8704H89.277V59.2704H88.257ZM90.5581 59.2704V58.5624C91.1261 58.1144 91.6621 57.6624 92.1661 57.2064C92.6781 56.7424 93.1301 56.2864 93.5221 55.8384C93.9221 55.3904 94.2341 54.9504 94.4581 54.5184C94.6901 54.0864 94.8061 53.6704 94.8061 53.2704C94.8061 52.9744 94.7541 52.6984 94.6501 52.4424C94.5541 52.1864 94.3941 51.9824 94.1701 51.8304C93.9461 51.6704 93.6421 51.5904 93.2581 51.5904C92.8901 51.5904 92.5821 51.6744 92.3341 51.8424C92.0861 52.0024 91.8981 52.2184 91.7701 52.4904C91.6501 52.7624 91.5901 53.0544 91.5901 53.3664H90.6181C90.6181 52.8144 90.7341 52.3424 90.9661 51.9504C91.1981 51.5504 91.5141 51.2464 91.9141 51.0384C92.3141 50.8304 92.7661 50.7264 93.2701 50.7264C94.0141 50.7264 94.6221 50.9384 95.0941 51.3624C95.5741 51.7784 95.8141 52.4024 95.8141 53.2344C95.8141 53.7304 95.6901 54.2224 95.4421 54.7104C95.1941 55.1904 94.8781 55.6584 94.4941 56.1144C94.1101 56.5624 93.6981 56.9824 93.2581 57.3744C92.8261 57.7664 92.4221 58.1184 92.0461 58.4304H96.1021V59.2704H90.5581ZM97.1973 59.2704V50.8704H98.2053V54.6744L101.709 50.8704H102.981L99.8613 54.2184L103.029 59.2704H101.805L99.1413 54.9984L98.2053 55.9944V59.2704H97.1973ZM106.637 59.2704V50.8704H111.749V51.6984H107.645V54.6504H111.137V55.4664H107.645V59.2704H106.637ZM115.082 59.4144C114.522 59.4144 114.018 59.2864 113.57 59.0304C113.122 58.7744 112.766 58.4144 112.502 57.9504C112.246 57.4784 112.118 56.9264 112.118 56.2944C112.118 55.6624 112.25 55.1144 112.514 54.6504C112.778 54.1784 113.134 53.8144 113.582 53.5584C114.038 53.3024 114.546 53.1744 115.106 53.1744C115.666 53.1744 116.17 53.3024 116.618 53.5584C117.066 53.8144 117.418 54.1784 117.674 54.6504C117.938 55.1144 118.07 55.6624 118.07 56.2944C118.07 56.9264 117.938 57.4784 117.674 57.9504C117.41 58.4144 117.05 58.7744 116.594 59.0304C116.146 59.2864 115.642 59.4144 115.082 59.4144ZM115.082 58.5504C115.426 58.5504 115.746 58.4664 116.042 58.2984C116.338 58.1304 116.578 57.8784 116.762 57.5424C116.946 57.2064 117.038 56.7904 117.038 56.2944C117.038 55.7984 116.946 55.3824 116.762 55.0464C116.586 54.7104 116.35 54.4584 116.054 54.2904C115.758 54.1224 115.442 54.0384 115.106 54.0384C114.762 54.0384 114.442 54.1224 114.146 54.2904C113.85 54.4584 113.61 54.7104 113.426 55.0464C113.242 55.3824 113.15 55.7984 113.15 56.2944C113.15 56.7904 113.242 57.2064 113.426 57.5424C113.61 57.8784 113.846 58.1304 114.134 58.2984C114.43 58.4664 114.746 58.5504 115.082 58.5504ZM119.111 59.2704V50.6304H120.119V59.2704H119.111ZM121.412 59.2704V50.6304H122.42V59.2704H121.412ZM126.424 59.4144C125.864 59.4144 125.36 59.2864 124.912 59.0304C124.464 58.7744 124.108 58.4144 123.844 57.9504C123.588 57.4784 123.46 56.9264 123.46 56.2944C123.46 55.6624 123.592 55.1144 123.856 54.6504C124.12 54.1784 124.476 53.8144 124.924 53.5584C125.38 53.3024 125.888 53.1744 126.448 53.1744C127.008 53.1744 127.512 53.3024 127.96 53.5584C128.408 53.8144 128.76 54.1784 129.016 54.6504C129.28 55.1144 129.412 55.6624 129.412 56.2944C129.412 56.9264 129.28 57.4784 129.016 57.9504C128.752 58.4144 128.392 58.7744 127.936 59.0304C127.488 59.2864 126.984 59.4144 126.424 59.4144ZM126.424 58.5504C126.768 58.5504 127.088 58.4664 127.384 58.2984C127.68 58.1304 127.92 57.8784 128.104 57.5424C128.288 57.2064 128.38 56.7904 128.38 56.2944C128.38 55.7984 128.288 55.3824 128.104 55.0464C127.928 54.7104 127.692 54.4584 127.396 54.2904C127.1 54.1224 126.784 54.0384 126.448 54.0384C126.104 54.0384 125.784 54.1224 125.488 54.2904C125.192 54.4584 124.952 54.7104 124.768 55.0464C124.584 55.3824 124.492 55.7984 124.492 56.2944C124.492 56.7904 124.584 57.2064 124.768 57.5424C124.952 57.8784 125.188 58.1304 125.476 58.2984C125.772 58.4664 126.088 58.5504 126.424 58.5504ZM131.431 59.2704L129.691 53.3184H130.699L131.959 57.9864L133.351 53.3184H134.491L135.895 57.9864L137.143 53.3184H138.163L136.423 59.2704H135.391L133.927 54.3624L132.463 59.2704H131.431ZM141.371 59.4144C140.803 59.4144 140.299 59.2864 139.859 59.0304C139.419 58.7664 139.071 58.4024 138.815 57.9384C138.567 57.4744 138.443 56.9264 138.443 56.2944C138.443 55.6704 138.567 55.1264 138.815 54.6624C139.063 54.1904 139.407 53.8264 139.847 53.5704C140.295 53.3064 140.811 53.1744 141.395 53.1744C141.971 53.1744 142.467 53.3064 142.883 53.5704C143.307 53.8264 143.631 54.1664 143.855 54.5904C144.079 55.0144 144.191 55.4704 144.191 55.9584C144.191 56.0464 144.187 56.1344 144.179 56.2224C144.179 56.3104 144.179 56.4104 144.179 56.5224H139.439C139.463 56.9784 139.567 57.3584 139.751 57.6624C139.943 57.9584 140.179 58.1824 140.459 58.3344C140.747 58.4864 141.051 58.5624 141.371 58.5624C141.787 58.5624 142.135 58.4664 142.415 58.2744C142.695 58.0824 142.899 57.8224 143.027 57.4944H144.023C143.863 58.0464 143.555 58.5064 143.099 58.8744C142.651 59.2344 142.075 59.4144 141.371 59.4144ZM141.371 54.0264C140.891 54.0264 140.463 54.1744 140.087 54.4704C139.719 54.7584 139.507 55.1824 139.451 55.7424H143.195C143.171 55.2064 142.987 54.7864 142.643 54.4824C142.299 54.1784 141.875 54.0264 141.371 54.0264ZM145.167 59.2704V53.3184H146.079L146.163 54.4584C146.347 54.0664 146.627 53.7544 147.003 53.5224C147.379 53.2904 147.843 53.1744 148.395 53.1744V54.2304H148.119C147.767 54.2304 147.443 54.2944 147.147 54.4224C146.851 54.5424 146.615 54.7504 146.439 55.0464C146.263 55.3424 146.175 55.7504 146.175 56.2704V59.2704H145.167ZM151.446 59.4144C150.734 59.4144 150.142 59.2344 149.67 58.8744C149.198 58.5144 148.922 58.0264 148.842 57.4104H149.874C149.938 57.7224 150.102 57.9944 150.366 58.2264C150.638 58.4504 151.002 58.5624 151.458 58.5624C151.882 58.5624 152.194 58.4744 152.394 58.2984C152.594 58.1144 152.694 57.8984 152.694 57.6504C152.694 57.2904 152.562 57.0504 152.298 56.9304C152.042 56.8104 151.678 56.7024 151.206 56.6064C150.886 56.5424 150.566 56.4504 150.246 56.3304C149.926 56.2104 149.658 56.0424 149.442 55.8264C149.226 55.6024 149.118 55.3104 149.118 54.9504C149.118 54.4304 149.31 54.0064 149.694 53.6784C150.086 53.3424 150.614 53.1744 151.278 53.1744C151.91 53.1744 152.426 53.3344 152.826 53.6544C153.234 53.9664 153.47 54.4144 153.534 54.9984H152.538C152.498 54.6944 152.366 54.4584 152.142 54.2904C151.926 54.1144 151.634 54.0264 151.266 54.0264C150.906 54.0264 150.626 54.1024 150.426 54.2544C150.234 54.4064 150.138 54.6064 150.138 54.8544C150.138 55.0944 150.262 55.2824 150.51 55.4184C150.766 55.5544 151.11 55.6704 151.542 55.7664C151.91 55.8464 152.258 55.9464 152.586 56.0664C152.922 56.1784 153.194 56.3504 153.402 56.5824C153.618 56.8064 153.726 57.1344 153.726 57.5664C153.734 58.1024 153.53 58.5464 153.114 58.8984C152.706 59.2424 152.15 59.4144 151.446 59.4144Z" fill="#9E9E9E"/>
</g>
<g filter="url(#filter1_d_2011_682)">
<rect x="188.541" y="13" width="151.541" height="66.5408" rx="33.2704" fill="white" shape-rendering="crispEdges"/>
<circle cx="221.811" cy="46.2704" r="21.2704" fill="#FFCC6A"/>
<path d="M230.514 54.6788L224.319 44.9491L230.384 38.2774C230.597 38.0375 230.707 37.7234 230.689 37.4032C230.672 37.0829 230.53 36.7824 230.292 36.5667C230.055 36.351 229.742 36.2376 229.422 36.251C229.101 36.2643 228.799 36.4035 228.58 36.6382L222.967 42.8173L219.139 36.8038C219.029 36.6308 218.877 36.4884 218.698 36.3897C218.518 36.291 218.316 36.2392 218.111 36.2391H213.236C213.018 36.2392 212.804 36.2979 212.616 36.4092C212.428 36.5204 212.274 36.6801 212.169 36.8715C212.063 37.0629 212.012 37.2789 212.019 37.4972C212.026 37.7154 212.091 37.9277 212.209 38.1119L218.404 47.8416L212.335 54.5132C212.225 54.6313 212.139 54.7699 212.083 54.9212C212.027 55.0725 212.002 55.2334 212.009 55.3945C212.016 55.5557 212.054 55.7139 212.123 55.8599C212.191 56.006 212.288 56.1371 212.407 56.2456C212.526 56.354 212.666 56.4377 212.818 56.4918C212.97 56.5459 213.131 56.5693 213.292 56.5606C213.453 56.552 213.611 56.5114 213.756 56.4414C213.901 56.3713 214.031 56.2731 214.138 56.1524L219.756 49.9734L223.584 55.9869C223.694 56.1599 223.845 56.3023 224.025 56.401C224.205 56.4997 224.406 56.5515 224.611 56.5516H229.486C229.705 56.5515 229.919 56.4927 230.107 56.3815C230.295 56.2702 230.449 56.1106 230.554 55.9192C230.659 55.7278 230.711 55.5117 230.704 55.2935C230.697 55.0753 230.631 54.863 230.514 54.6788ZM225.281 54.1141L215.457 38.6766H217.442L227.266 54.1141H225.281Z" fill="#7551DC"/>
<path d="M258.042 42.5344C256.901 42.5344 255.898 42.3104 255.034 41.8624C254.17 41.4144 253.498 40.7744 253.018 39.9424C252.538 39.1211 252.298 38.1504 252.298 37.0304C252.298 35.8891 252.49 34.8277 252.874 33.8464C253.269 32.8651 253.818 32.0117 254.522 31.2864C255.237 30.5504 256.079 29.9797 257.05 29.5744C258.031 29.1584 259.114 28.9504 260.298 28.9504C261.493 28.9504 262.527 29.1797 263.402 29.6384C264.287 30.0971 264.97 30.7371 265.45 31.5584C265.941 32.3691 266.186 33.3131 266.186 34.3904C266.186 35.0197 266.111 35.6277 265.962 36.2144C265.813 36.8011 265.583 37.3344 265.274 37.8144C264.975 38.2837 264.613 38.6624 264.186 38.9504C263.759 39.2277 263.263 39.3664 262.698 39.3664C262.026 39.3664 261.535 39.1637 261.226 38.7584C260.927 38.3531 260.821 37.8251 260.906 37.1744L260.954 36.6464L261.242 37.2384C260.975 37.8997 260.554 38.4224 259.978 38.8064C259.413 39.1797 258.789 39.3664 258.106 39.3664C257.317 39.3664 256.693 39.1264 256.234 38.6464C255.786 38.1557 255.562 37.4891 255.562 36.6464C255.562 36.0597 255.653 35.4997 255.834 34.9664C256.026 34.4331 256.287 33.9584 256.618 33.5424C256.949 33.1157 257.343 32.7797 257.802 32.5344C258.271 32.2891 258.789 32.1664 259.354 32.1664C259.994 32.1664 260.501 32.3371 260.874 32.6784C261.247 33.0091 261.471 33.4944 261.546 34.1344L261.21 34.3424L261.578 32.3264H262.906L262.122 36.8064C262.047 37.2437 262.069 37.6011 262.186 37.8784C262.303 38.1451 262.549 38.2784 262.922 38.2784C263.253 38.2784 263.541 38.1611 263.786 37.9264C264.031 37.6917 264.239 37.3877 264.41 37.0144C264.581 36.6304 264.709 36.2144 264.794 35.7664C264.879 35.3184 264.922 34.8811 264.922 34.4544C264.922 33.5371 264.725 32.7531 264.33 32.1024C263.946 31.4517 263.397 30.9504 262.682 30.5984C261.967 30.2357 261.114 30.0544 260.122 30.0544C259.162 30.0544 258.282 30.2304 257.482 30.5824C256.682 30.9344 255.989 31.4251 255.402 32.0544C254.815 32.6731 254.362 33.3984 254.042 34.2304C253.722 35.0624 253.562 35.9531 253.562 36.9024C253.562 37.8624 253.749 38.6784 254.122 39.3504C254.506 40.0224 255.05 40.5291 255.754 40.8704C256.469 41.2224 257.311 41.3984 258.282 41.3984C258.751 41.3984 259.215 41.3504 259.674 41.2544C260.143 41.1691 260.575 41.0357 260.97 40.8544L261.242 41.9264C260.751 42.1291 260.234 42.2784 259.69 42.3744C259.157 42.4811 258.607 42.5344 258.042 42.5344ZM258.602 38.1664C259.018 38.1664 259.402 38.0544 259.754 37.8304C260.106 37.5957 260.399 37.2757 260.634 36.8704C260.869 36.4544 261.007 35.9797 261.05 35.4464C261.093 35.0624 261.055 34.7157 260.938 34.4064C260.831 34.0864 260.65 33.8357 260.394 33.6544C260.149 33.4624 259.829 33.3664 259.434 33.3664C259.061 33.3664 258.719 33.4517 258.41 33.6224C258.111 33.7931 257.855 34.0224 257.642 34.3104C257.439 34.5984 257.279 34.9237 257.162 35.2864C257.055 35.6491 257.002 36.0171 257.002 36.3904C257.002 36.9237 257.135 37.3557 257.402 37.6864C257.669 38.0064 258.069 38.1664 258.602 38.1664ZM269.028 39.2704V35.1104L265.332 28.0704H267.14L270.052 33.9904H269.62L272.5 28.0704H274.292L270.628 35.1104V39.2704H269.028ZM276.993 39.4624C276.235 39.4624 275.553 39.2917 274.945 38.9504C274.347 38.5984 273.873 38.1077 273.521 37.4784C273.179 36.8384 273.009 36.0971 273.009 35.2544C273.009 34.4117 273.185 33.6757 273.537 33.0464C273.889 32.4064 274.369 31.9157 274.977 31.5744C275.585 31.2224 276.262 31.0464 277.009 31.0464C277.777 31.0464 278.459 31.2224 279.057 31.5744C279.665 31.9157 280.139 32.4011 280.481 33.0304C280.833 33.6597 281.009 34.4011 281.009 35.2544C281.009 36.0971 280.833 36.8384 280.481 37.4784C280.129 38.1077 279.649 38.5984 279.041 38.9504C278.443 39.2917 277.761 39.4624 276.993 39.4624ZM276.993 38.0864C277.43 38.0864 277.825 37.9851 278.177 37.7824C278.539 37.5691 278.827 37.2491 279.041 36.8224C279.265 36.3957 279.377 35.8731 279.377 35.2544C279.377 34.6251 279.27 34.1024 279.057 33.6864C278.843 33.2597 278.555 32.9451 278.193 32.7424C277.841 32.5291 277.451 32.4224 277.025 32.4224C276.609 32.4224 276.214 32.5291 275.841 32.7424C275.478 32.9451 275.185 33.2597 274.961 33.6864C274.747 34.1024 274.641 34.6251 274.641 35.2544C274.641 35.8731 274.747 36.3957 274.961 36.8224C275.185 37.2491 275.473 37.5691 275.825 37.7824C276.187 37.9851 276.577 38.0864 276.993 38.0864ZM284.859 39.4624C284.23 39.4624 283.686 39.3344 283.227 39.0784C282.768 38.8224 282.411 38.4384 282.155 37.9264C281.91 37.4037 281.787 36.7531 281.787 35.9744V31.2384H283.387V35.8144C283.387 36.5717 283.547 37.1424 283.867 37.5264C284.198 37.9104 284.672 38.1024 285.291 38.1024C285.718 38.1024 286.096 38.0011 286.427 37.7984C286.768 37.5957 287.035 37.3024 287.227 36.9184C287.419 36.5344 287.515 36.0651 287.515 35.5104V31.2384H289.115V39.2704H287.691L287.579 37.8944C287.334 38.3744 286.971 38.7584 286.491 39.0464C286.022 39.3237 285.478 39.4624 284.859 39.4624ZM290.33 39.2704V31.2384H291.77L291.914 32.7584C292.095 32.3957 292.325 32.0917 292.602 31.8464C292.89 31.5904 293.226 31.3931 293.61 31.2544C294.005 31.1157 294.447 31.0464 294.938 31.0464V32.7264H294.41C294.069 32.7264 293.749 32.7691 293.45 32.8544C293.151 32.9397 292.885 33.0784 292.65 33.2704C292.426 33.4624 292.25 33.7237 292.122 34.0544C291.994 34.3851 291.93 34.7957 291.93 35.2864V39.2704H290.33ZM300.472 39.4624C299.373 39.4624 298.424 39.2224 297.624 38.7424C296.824 38.2517 296.205 37.5744 295.768 36.7104C295.341 35.8357 295.128 34.8224 295.128 33.6704C295.128 32.5291 295.341 31.5211 295.768 30.6464C296.205 29.7717 296.824 29.0944 297.624 28.6144C298.424 28.1237 299.373 27.8784 300.472 27.8784C301.773 27.8784 302.834 28.1931 303.656 28.8224C304.477 29.4517 304.994 30.3371 305.208 31.4784H303.464C303.293 30.8171 302.957 30.2891 302.456 29.8944C301.965 29.4997 301.298 29.3024 300.456 29.3024C299.709 29.3024 299.053 29.4784 298.488 29.8304C297.933 30.1824 297.506 30.6837 297.208 31.3344C296.909 31.9851 296.76 32.7637 296.76 33.6704C296.76 34.5771 296.909 35.3611 297.208 36.0224C297.506 36.6731 297.933 37.1744 298.488 37.5264C299.053 37.8677 299.709 38.0384 300.456 38.0384C301.298 38.0384 301.965 37.8517 302.456 37.4784C302.957 37.0944 303.288 36.5771 303.448 35.9264H305.208C304.994 37.0357 304.477 37.9051 303.656 38.5344C302.834 39.1531 301.773 39.4624 300.472 39.4624ZM309.762 39.4624C309.005 39.4624 308.322 39.2917 307.714 38.9504C307.117 38.5984 306.642 38.1077 306.29 37.4784C305.949 36.8384 305.778 36.0971 305.778 35.2544C305.778 34.4117 305.954 33.6757 306.306 33.0464C306.658 32.4064 307.138 31.9157 307.746 31.5744C308.354 31.2224 309.031 31.0464 309.778 31.0464C310.546 31.0464 311.229 31.2224 311.826 31.5744C312.434 31.9157 312.909 32.4011 313.25 33.0304C313.602 33.6597 313.778 34.4011 313.778 35.2544C313.778 36.0971 313.602 36.8384 313.25 37.4784C312.898 38.1077 312.418 38.5984 311.81 38.9504C311.213 39.2917 310.53 39.4624 309.762 39.4624ZM309.762 38.0864C310.199 38.0864 310.594 37.9851 310.946 37.7824C311.309 37.5691 311.597 37.2491 311.81 36.8224C312.034 36.3957 312.146 35.8731 312.146 35.2544C312.146 34.6251 312.039 34.1024 311.826 33.6864C311.613 33.2597 311.325 32.9451 310.962 32.7424C310.61 32.5291 310.221 32.4224 309.794 32.4224C309.378 32.4224 308.983 32.5291 308.61 32.7424C308.247 32.9451 307.954 33.2597 307.73 33.6864C307.517 34.1024 307.41 34.6251 307.41 35.2544C307.41 35.8731 307.517 36.3957 307.73 36.8224C307.954 37.2491 308.242 37.5691 308.594 37.7824C308.957 37.9851 309.346 38.0864 309.762 38.0864Z" fill="#121212"/>
<path d="M254.742 61.4144C254.19 61.4144 253.694 61.3144 253.254 61.1144C252.814 60.9064 252.466 60.6224 252.21 60.2624C251.962 59.8944 251.838 59.4704 251.838 58.9904C251.838 58.4784 251.986 58.0184 252.282 57.6104C252.586 57.2024 252.986 56.9304 253.482 56.7944C253.026 56.6424 252.674 56.3984 252.426 56.0624C252.178 55.7264 252.054 55.3584 252.054 54.9584C252.054 54.5504 252.162 54.1784 252.378 53.8424C252.594 53.4984 252.902 53.2264 253.302 53.0264C253.702 52.8264 254.182 52.7264 254.742 52.7264C255.302 52.7264 255.782 52.8264 256.182 53.0264C256.582 53.2264 256.89 53.4984 257.106 53.8424C257.322 54.1784 257.43 54.5504 257.43 54.9584C257.43 55.3504 257.306 55.7184 257.058 56.0624C256.81 56.3984 256.458 56.6424 256.002 56.7944C256.498 56.9304 256.894 57.2024 257.19 57.6104C257.494 58.0184 257.646 58.4784 257.646 58.9904C257.646 59.4704 257.518 59.8944 257.262 60.2624C257.014 60.6224 256.67 60.9064 256.23 61.1144C255.79 61.3144 255.294 61.4144 254.742 61.4144ZM254.742 56.4344C255.254 56.4344 255.658 56.3064 255.954 56.0504C256.258 55.7864 256.41 55.4424 256.41 55.0184C256.41 54.5464 256.262 54.1904 255.966 53.9504C255.67 53.7104 255.262 53.5904 254.742 53.5904C254.222 53.5904 253.814 53.7104 253.518 53.9504C253.23 54.1904 253.086 54.5464 253.086 55.0184C253.086 55.4424 253.234 55.7864 253.53 56.0504C253.826 56.3064 254.23 56.4344 254.742 56.4344ZM254.742 60.5264C255.374 60.5264 255.846 60.3824 256.158 60.0944C256.478 59.7984 256.638 59.4104 256.638 58.9304C256.638 58.3864 256.466 57.9744 256.122 57.6944C255.778 57.4144 255.318 57.2744 254.742 57.2744C254.166 57.2744 253.706 57.4144 253.362 57.6944C253.018 57.9744 252.846 58.3864 252.846 58.9304C252.846 59.4104 253.002 59.7984 253.314 60.0944C253.634 60.3824 254.11 60.5264 254.742 60.5264ZM258.934 61.2704V52.8704H259.942V56.6744L263.446 52.8704H264.718L261.598 56.2184L264.766 61.2704H263.542L260.878 56.9984L259.942 57.9944V61.2704H258.934ZM268.374 61.2704V52.8704H273.486V53.6984H269.382V56.6504H272.874V57.4664H269.382V61.2704H268.374ZM276.819 61.4144C276.259 61.4144 275.755 61.2864 275.307 61.0304C274.859 60.7744 274.503 60.4144 274.239 59.9504C273.983 59.4784 273.855 58.9264 273.855 58.2944C273.855 57.6624 273.987 57.1144 274.251 56.6504C274.515 56.1784 274.871 55.8144 275.319 55.5584C275.775 55.3024 276.283 55.1744 276.843 55.1744C277.403 55.1744 277.907 55.3024 278.355 55.5584C278.803 55.8144 279.155 56.1784 279.411 56.6504C279.675 57.1144 279.807 57.6624 279.807 58.2944C279.807 58.9264 279.675 59.4784 279.411 59.9504C279.147 60.4144 278.787 60.7744 278.331 61.0304C277.883 61.2864 277.379 61.4144 276.819 61.4144ZM276.819 60.5504C277.163 60.5504 277.483 60.4664 277.779 60.2984C278.075 60.1304 278.315 59.8784 278.499 59.5424C278.683 59.2064 278.775 58.7904 278.775 58.2944C278.775 57.7984 278.683 57.3824 278.499 57.0464C278.323 56.7104 278.087 56.4584 277.791 56.2904C277.495 56.1224 277.179 56.0384 276.843 56.0384C276.499 56.0384 276.179 56.1224 275.883 56.2904C275.587 56.4584 275.347 56.7104 275.163 57.0464C274.979 57.3824 274.887 57.7984 274.887 58.2944C274.887 58.7904 274.979 59.2064 275.163 59.5424C275.347 59.8784 275.583 60.1304 275.871 60.2984C276.167 60.4664 276.483 60.5504 276.819 60.5504ZM280.848 61.2704V52.6304H281.856V61.2704H280.848ZM283.148 61.2704V52.6304H284.156V61.2704H283.148ZM288.161 61.4144C287.601 61.4144 287.097 61.2864 286.649 61.0304C286.201 60.7744 285.845 60.4144 285.581 59.9504C285.325 59.4784 285.197 58.9264 285.197 58.2944C285.197 57.6624 285.329 57.1144 285.593 56.6504C285.857 56.1784 286.213 55.8144 286.661 55.5584C287.117 55.3024 287.625 55.1744 288.185 55.1744C288.745 55.1744 289.249 55.3024 289.697 55.5584C290.145 55.8144 290.497 56.1784 290.753 56.6504C291.017 57.1144 291.149 57.6624 291.149 58.2944C291.149 58.9264 291.017 59.4784 290.753 59.9504C290.489 60.4144 290.129 60.7744 289.673 61.0304C289.225 61.2864 288.721 61.4144 288.161 61.4144ZM288.161 60.5504C288.505 60.5504 288.825 60.4664 289.121 60.2984C289.417 60.1304 289.657 59.8784 289.841 59.5424C290.025 59.2064 290.117 58.7904 290.117 58.2944C290.117 57.7984 290.025 57.3824 289.841 57.0464C289.665 56.7104 289.429 56.4584 289.133 56.2904C288.837 56.1224 288.521 56.0384 288.185 56.0384C287.841 56.0384 287.521 56.1224 287.225 56.2904C286.929 56.4584 286.689 56.7104 286.505 57.0464C286.321 57.3824 286.229 57.7984 286.229 58.2944C286.229 58.7904 286.321 59.2064 286.505 59.5424C286.689 59.8784 286.925 60.1304 287.213 60.2984C287.509 60.4664 287.825 60.5504 288.161 60.5504ZM293.168 61.2704L291.428 55.3184H292.436L293.696 59.9864L295.088 55.3184H296.228L297.632 59.9864L298.88 55.3184H299.9L298.16 61.2704H297.128L295.664 56.3624L294.2 61.2704H293.168ZM303.108 61.4144C302.54 61.4144 302.036 61.2864 301.596 61.0304C301.156 60.7664 300.808 60.4024 300.552 59.9384C300.304 59.4744 300.18 58.9264 300.18 58.2944C300.18 57.6704 300.304 57.1264 300.552 56.6624C300.8 56.1904 301.144 55.8264 301.584 55.5704C302.032 55.3064 302.548 55.1744 303.132 55.1744C303.708 55.1744 304.204 55.3064 304.62 55.5704C305.044 55.8264 305.368 56.1664 305.592 56.5904C305.816 57.0144 305.928 57.4704 305.928 57.9584C305.928 58.0464 305.924 58.1344 305.916 58.2224C305.916 58.3104 305.916 58.4104 305.916 58.5224H301.176C301.2 58.9784 301.304 59.3584 301.488 59.6624C301.68 59.9584 301.916 60.1824 302.196 60.3344C302.484 60.4864 302.788 60.5624 303.108 60.5624C303.524 60.5624 303.872 60.4664 304.152 60.2744C304.432 60.0824 304.636 59.8224 304.764 59.4944H305.76C305.6 60.0464 305.292 60.5064 304.836 60.8744C304.388 61.2344 303.812 61.4144 303.108 61.4144ZM303.108 56.0264C302.628 56.0264 302.2 56.1744 301.824 56.4704C301.456 56.7584 301.244 57.1824 301.188 57.7424H304.932C304.908 57.2064 304.724 56.7864 304.38 56.4824C304.036 56.1784 303.612 56.0264 303.108 56.0264ZM306.904 61.2704V55.3184H307.816L307.9 56.4584C308.084 56.0664 308.364 55.7544 308.74 55.5224C309.116 55.2904 309.58 55.1744 310.132 55.1744V56.2304H309.856C309.504 56.2304 309.18 56.2944 308.884 56.4224C308.588 56.5424 308.352 56.7504 308.176 57.0464C308 57.3424 307.912 57.7504 307.912 58.2704V61.2704H306.904ZM313.183 61.4144C312.471 61.4144 311.879 61.2344 311.407 60.8744C310.935 60.5144 310.659 60.0264 310.579 59.4104H311.611C311.675 59.7224 311.839 59.9944 312.103 60.2264C312.375 60.4504 312.739 60.5624 313.195 60.5624C313.619 60.5624 313.931 60.4744 314.131 60.2984C314.331 60.1144 314.431 59.8984 314.431 59.6504C314.431 59.2904 314.299 59.0504 314.035 58.9304C313.779 58.8104 313.415 58.7024 312.943 58.6064C312.623 58.5424 312.303 58.4504 311.983 58.3304C311.663 58.2104 311.395 58.0424 311.179 57.8264C310.963 57.6024 310.855 57.3104 310.855 56.9504C310.855 56.4304 311.047 56.0064 311.431 55.6784C311.823 55.3424 312.351 55.1744 313.015 55.1744C313.647 55.1744 314.163 55.3344 314.563 55.6544C314.971 55.9664 315.207 56.4144 315.271 56.9984H314.275C314.235 56.6944 314.103 56.4584 313.879 56.2904C313.663 56.1144 313.371 56.0264 313.003 56.0264C312.643 56.0264 312.363 56.1024 312.163 56.2544C311.971 56.4064 311.875 56.6064 311.875 56.8544C311.875 57.0944 311.999 57.2824 312.247 57.4184C312.503 57.5544 312.847 57.6704 313.279 57.7664C313.647 57.8464 313.995 57.9464 314.323 58.0664C314.659 58.1784 314.931 58.3504 315.139 58.5824C315.355 58.8064 315.463 59.1344 315.463 59.5664C315.471 60.1024 315.267 60.5464 314.851 60.8984C314.443 61.2424 313.887 61.4144 313.183 61.4144Z" fill="#9E9E9E"/>
</g>
<defs>
<filter id="filter0_d_2011_682" x="-10.2351" y="0.284117" width="203.448" height="115.448" filterUnits="userSpaceOnUse" color-interpolation-filters="sRGB">
<feFlood flood-opacity="0" result="BackgroundImageFix"/>
<feColorMatrix in="SourceAlpha" type="matrix" values="0 0 0 0 0 0 0 0 0 0 0 0 0 0 0 0 0 0 127 0" result="hardAlpha"/>
<feOffset dx="-9.78145" dy="11.7377"/>
<feGaussianBlur stdDeviation="12.2268"/>
<feComposite in2="hardAlpha" operator="out"/>
<feColorMatrix type="matrix" values="0 0 0 0 0.384371 0 0 0 0 0.102708 0 0 0 0 0.483333 0 0 0 0.05 0"/>
<feBlend mode="normal" in2="BackgroundImageFix" result="effect1_dropShadow_2011_682"/>
<feBlend mode="normal" in="SourceGraphic" in2="effect1_dropShadow_2011_682" result="shape"/>
</filter>
<filter id="filter1_d_2011_682" x="154.306" y="0.284117" width="200.448" height="115.448" filterUnits="userSpaceOnUse" color-interpolation-filters="sRGB">
<feFlood flood-opacity="0" result="BackgroundImageFix"/>
<feColorMatrix in="SourceAlpha" type="matrix" values="0 0 0 0 0 0 0 0 0 0 0 0 0 0 0 0 0 0 127 0" result="hardAlpha"/>
<feOffset dx="-9.78145" dy="11.7377"/>
<feGaussianBlur stdDeviation="12.2268"/>
<feComposite in2="hardAlpha" operator="out"/>
<feColorMatrix type="matrix" values="0 0 0 0 0.384371 0 0 0 0 0.102708 0 0 0 0 0.483333 0 0 0 0.05 0"/>
<feBlend mode="normal" in2="BackgroundImageFix" result="effect1_dropShadow_2011_682"/>
<feBlend mode="normal" in="SourceGraphic" in2="effect1_dropShadow_2011_682" result="shape"/>
</filter>
</defs>
</svg>
